<?xml version="1.0" standalone="no"?>
<!DOCTYPE svg PUBLIC "-//W3C//DTD SVG 1.1//EN" "http://www.w3.org/Graphics/SVG/1.1/DTD/svg11.dtd">
<svg xmlns="http://www.w3.org/2000/svg">
<defs >
<font id="Eczar" horiz-adv-x="618" ><font-face
    font-family="Eczar ExtraBold"
    units-per-em="1000"
    panose-1="0 0 0 0 0 0 0 0 0 0"
    ascent="1143"
    descent="-634"
    alphabetic="0" />
<glyph unicode=" " glyph-name="space" horiz-adv-x="265" />
<glyph unicode="!" glyph-name="exclam" horiz-adv-x="366" d="M114 266L66 717Q99 729 142 733T229 733T301 715L251 266H114ZM196 -20Q116 6 81 73Q87 117 113 148T179 202Q217 185 247 156T289 90Q266 16 196 -20Z" />
<glyph unicode="&quot;" glyph-name="quotedbl" horiz-adv-x="475" d="M363 384L255 424Q270 461 280 502T295 579T296 636L349 693L473 669Q476 645 469 609T446 531T410 452T363 384ZM114 384L6 424Q21 461 31 502T46 579T47 636L100 693L224 669Q227 645 220
609T197 531T161 452T114 384Z" />
<glyph unicode="#" glyph-name="numbersign" horiz-adv-x="621" d="M420 -12L321 0L402 530L501 519L420 -12ZM52 117V212H540V117H52ZM224 -12L125 0L206 530L305 519L224 -12ZM81 313V407H569V313H81Z" />
<glyph unicode="$" glyph-name="dollar" horiz-adv-x="622" d="M248 -145V35H391V-145H248ZM248 633V785H390V633H248ZM315 -19Q275 -19 228 -12T135 8T50 39L101 177Q133 145 170 123T249 90T331 74Q360 87 371 105T383 140Q383 168 363 187T311 223T238 258Q193
279 150 306T77 374T48 473Q48 535 83 583T181 658T329 686Q367 686 409 681T491 666T559 645L503 495Q457 545 403 568T287 596Q264 583 254 563T243 526Q243 501 266 483T325 448T404 411Q449 390 491 363T561 294T589 190Q589 123 552 76T452 5T315 -19ZM276
28L51 39Q49 62 51 100T58 177T71 241H161L276 28ZM430 447L358 638L559 645Q558 614 555 580T548 511T535 447H430Z" />
<glyph unicode="%" glyph-name="percent" horiz-adv-x="833" d="M221 -30L142 34L600 608L679 545L221 -30ZM206 258Q160 258 122 281T60 345T36 433Q36 481 58 522T117 588T201 613Q247 613 284 588T344 522T367 431Q367 384 346 345T289 282T206 258ZM223 358Q236
371 242 391T249 433Q249 457 241 477T217 506T174 507Q163 494 157 474T150 434Q150 413 157 394T181 365T223 358ZM636 -20Q590 -20 552 3T490 66T466 155Q466 202 488 243T547 309T631 334Q677 334 714 309T774 243T797 153Q797 106 776 67T719 4T636 -20ZM653
79Q666 93 672 113T679 155Q679 179 671 198T647 227T604 229Q593 215 587 196T580 155Q580 134 587 115T611 86T653 79Z" />
<glyph unicode="&amp;" glyph-name="ampersand" horiz-adv-x="712" d="M327 -29Q237 -29 165 1T51 84T9 207Q9 265 36 304T107 363T195 386L201 413L335 360L316 278Q277 279 249 268T206 235T190 184Q190 150 209 127T260 93T326 81Q350 81 378 87T425 105Q450
126 461 156T473 220Q473 263 455 304T402 371L556 419Q595 378 613 327T631 226Q631 155 595 97T491 5T327 -29ZM215 339Q152 345 111 367T50 423T30 491Q30 534 58 574T143 641T283 668Q334 668 393 657T502 622L441 469L263 550Q241 542 224 519T207 466Q207
443 221 417T269 373L215 339ZM401 281L359 359Q427 402 486 431T595 472T685 475T756 433L707 300Q677 321 647 335T582 351T504 337T401 281Z" />
<glyph unicode="&apos;" glyph-name="quotesingle" horiz-adv-x="192" d="M79 450L-28 490Q-13 527 -7 566T0 639T-3 694L49 751L173 735Q176 695 164 642T129 537T79 450Z" />
<glyph unicode="(" glyph-name="parenleft" horiz-adv-x="386" d="M226 -155Q135 -51 84 64T33 306Q33 422 81 528T229 732L345 666Q290 575 263 488T235 310Q235 210 265 113T344 -88L226 -155Z" />
<glyph unicode=")" glyph-name="parenright" horiz-adv-x="386" d="M160 -155L42 -88Q92 16 121 113T151 310Q151 400 124 487T41 666L157 732Q258 634 305 528T353 306Q353 179 302 64T160 -155Z" />
<glyph unicode="*" glyph-name="asterisk" horiz-adv-x="434" d="M122 416L-11 513L153 589L213 541L122 416ZM127 577L-19 622L25 781L154 649L127 577ZM235 379L211 560L275 602L365 479L235 379ZM214 660L137 665L138 818L302 821L214 660ZM429 577L250 607L228
680L373 730L429 577Z" />
<glyph unicode="+" glyph-name="plus" horiz-adv-x="569" d="M226 32V210H52V320H226V499H343V320H517V210H343V32H226Z" />
<glyph unicode="," glyph-name="comma" horiz-adv-x="329" d="M98 -140L51 -85Q80 -60 99 -29T120 27L66 74Q73 118 99 149T163 201Q219 179 244 145T270 70Q270 29 246 -12T182 -88T98 -140Z" />
<glyph unicode="-" glyph-name="hyphen" horiz-adv-x="500" d="M99 213L34 316L59 365H379L444 262L419 213H99Z" />
<glyph unicode="." glyph-name="period" horiz-adv-x="320" d="M225 -45Q206 -37 182 -21T136 14T101 51Q119 87 146 122T201 173Q223 164 246 148T288 112T320 77Q307 44 281 10T225 -45Z" />
<glyph unicode="/" glyph-name="slash" horiz-adv-x="428" d="M125 -119L7 -70L315 739L431 688L125 -119Z" />
<glyph unicode="0" glyph-name="zero" horiz-adv-x="614" d="M310 -17Q240 -17 186 10T94 84T37 194T17 326Q17 403 39 465T102 573T194 643T308 668Q384 668 449 629T555 513T596 327Q596 254 577 192T522 82T432 9T310 -17ZM324 88Q335 88 346 92Q360 113 369
147T384 225T389 313Q389 359 384 403T367 484T337 542T293 564Q289 564 284 564T272 562Q258 543 248 507T232 426T227 336Q227 293 232 249T249 169T279 110T324 88Z" />
<glyph unicode="1" glyph-name="one" horiz-adv-x="469" d="M159 0V591L360 609V0H159ZM29 0L23 32Q40 44 65 56T120 78T174 94L172 0H29ZM336 0L339 80L477 55L475 0H336ZM42 438L5 510L277 670L296 619L276 529L42 438ZM260 584L277 670L360 609L260 584Z" />
<glyph unicode="2" glyph-name="two" horiz-adv-x="617" d="M55 0L33 98L189 263Q246 323 279 363T325 434T339 489Q339 514 328 533T294 564T236 576Q223 576 209 574T179 566L46 601Q101 633 167 652T295 670Q371 670 426 642T512 568T543 464Q543 425 527 387T475
304T381 204L261 87L265 80L521 133V0H55ZM544 0L333 8L497 244L581 221Q580 176 571 119T544 0ZM194 388H67Q62 406 58 434T50 494T45 553T46 601L259 598L194 388Z" />
<glyph unicode="3" glyph-name="three" horiz-adv-x="611" d="M289 -20Q228 -20 161 -6T36 33L93 216Q132 192 172 166T251 117T326 86Q343 103 351 122T359 161Q359 188 345 211T304 249T238 264L187 263L182 355H194L382 359L385 342Q438 345 480 323T547 262T572
175Q572 117 536 73T436 5T289 -20ZM184 413H68Q61 438 58 473T54 545T55 606L248 614L184 413ZM202 266L194 355Q242 358 274 375T323 418T340 471Q340 515 305 543T214 572Q187 572 158 564T91 534L54 606Q101 638 166 654T295 670Q379 670 434 645T518 580T546
496Q546 447 509 402T394 335V319L202 266Z" />
<glyph unicode="4" glyph-name="four" horiz-adv-x="630" d="M48 151L9 256L354 670L423 652L431 553L397 578L157 233L103 261L610 272L615 182L583 151H48ZM193 0L187 32Q211 50 251 66T322 94L320 0H193ZM431 0L434 80L572 55L570 0H431ZM309 0V373L318 517L352
663L502 652V0H309Z" />
<glyph unicode="5" glyph-name="five" horiz-adv-x="582" d="M287 -24Q229 -24 159 -7T30 45L87 227Q146 175 214 137T336 85Q357 107 363 126T370 162Q370 199 347 223T285 259T194 271Q178 271 159 269T116 259L61 319L90 650H456L447 542L251 554L239 401Q254
406 272 407T307 408Q349 407 392 394T471 355T529 289T551 198Q551 140 521 89T432 7T287 -24ZM375 435L325 648L520 650Q522 632 521 603T516 543T508 482T498 435H375Z" />
<glyph unicode="6" glyph-name="six" horiz-adv-x="599" d="M326 -20Q271 -20 219 -3T124 50T57 138T32 264Q32 322 50 380T106 490T202 581T340 641T523 657L522 471L323 524Q292 507 271 469T240 381T229 281Q229 225 242 177T280 99T345 71Q368 89 379 117T390
175Q390 204 381 227T357 265T321 279Q311 279 300 275T276 262L254 349Q283 376 318 387T386 399Q434 399 477 377T548 311T576 206Q576 146 547 95T462 12T326 -20Z" />
<glyph unicode="7" glyph-name="seven" horiz-adv-x="527" d="M263 -26L75 40Q140 168 208 289T359 529L352 537L80 527L34 650H488L537 548Q461 409 393 269T263 -26ZM175 418H43Q38 436 34 467T26 534T21 600T22 650L216 648L175 418Z" />
<glyph unicode="8" glyph-name="eight" horiz-adv-x="591" d="M299 -22Q227 -22 167 0T72 64T36 164Q36 210 60 251T129 323T239 364L311 280Q265 258 243 223T221 153Q221 116 244 90T311 63Q320 63 331 64T354 70Q365 87 369 99T373 129Q373 160 359 182T314
225T229 277L165 315Q118 345 88 384T58 476Q58 526 85 569T167 640T298 668Q372 668 423 644T501 580T528 496Q528 450 498 405T401 337L312 396Q334 410 346 427T363 462T369 495Q369 530 348 552T292 575Q283 575 274 574T254 567Q243 555 238 541T233 514Q233
487 251 468T301 431T368 393Q417 367 459 336T528 265T555 170Q555 109 521 66T428 1T299 -22Z" />
<glyph unicode="9" glyph-name="nine" horiz-adv-x="592" d="M111 -10L80 178L285 120Q317 138 337 176T367 264T377 365Q377 404 371 441T353 507T320 551T272 564Q250 555 239 525T227 459Q227 427 238 399T273 357T329 348L339 244Q285 220 230 224T128 257T54
332T26 441Q26 505 57 556T145 639T280 670Q370 670 434 629T532 519T566 364Q566 278 532 206T437 83T292 6T111 -10Z" />
<glyph unicode=":" glyph-name="colon" horiz-adv-x="309" d="M216 289Q136 316 101 382Q107 426 133 458T199 511Q237 494 267 466T309 400Q287 327 216 289ZM216 -20Q136 6 101 73Q107 117 133 148T199 202Q237 185 267 156T309 90Q286 16 216 -20Z" />
<glyph unicode=";" glyph-name="semicolon" horiz-adv-x="334" d="M98 -140L51 -85Q80 -60 99 -29T120 27L66 74Q73 118 99 149T163 201Q219 179 244 145T270 70Q270 29 246 -12T182 -88T98 -140ZM182 289Q102 316 67 382Q73 426 99 458T165 511Q203 494 233 466T275
400Q253 327 182 289Z" />
<glyph unicode="&lt;" glyph-name="less" horiz-adv-x="578" d="M467 -6L58 202L56 272L466 500L517 401L229 246L230 240L521 97L467 -6Z" />
<glyph unicode="=" glyph-name="equal" horiz-adv-x="576" d="M52 304V401H524V304H52ZM52 116V213H524V116H52Z" />
<glyph unicode="&gt;" glyph-name="greater" horiz-adv-x="578" d="M111 -6L57 97L348 240L349 246L61 401L112 500L522 272L520 202L111 -6Z" />
<glyph unicode="?" glyph-name="question" horiz-adv-x="661" d="M230 254Q230 300 244 332T278 389T319 435T353 477T367 525Q367 549 354 573T309 609Q259 609 219 586T124 519L85 649Q119 679 175 707T316 735Q394 735 452 708T543 634T575 527Q575 484 560
456T520 406T471 364T425 318T396 254H230ZM337 -20Q257 6 222 73Q228 117 254 148T320 202Q358 185 388 156T430 90Q407 16 337 -20ZM109 454Q102 481 96 519T87 593T86 648L312 657L224 454H109Z" />
<glyph unicode="@" glyph-name="at" horiz-adv-x="1098" d="M209 -56Q120 24 77 120T33 311Q33 397 67 476T169 616T335 714T563 750Q695 750 792 713T952 613T1047 475T1078 322Q1078 244 1047 173T955 51T804 -17Q742 -21 704 -11T643 20T607 69L588 70V311Q588
358 573 379T543 408Q533 407 523 405T506 399L477 285L363 284Q353 323 349 365T349 447Q384 459 421 468T496 483T566 493T623 497Q653 497 682 489T736 464T777 424Q785 412 787 388T789 322V135Q789 118 796 113T814 112T834 126Q852 144 864 174T883 241T890
313Q890 376 868 428T804 519T703 578T569 599Q484 599 420 573T311 501T245 396T222 270Q222 205 244 137T311 6L209 -56ZM510 -12Q449 -22 405 -4T338 47T315 116Q315 148 335 182T400 238L620 243L622 177H590Q575 177 561 175T535 167T518 153T511 131Q511
121 515 109T526 89Q542 91 558 94T589 102T616 110L633 68L510 -12Z" />
<glyph unicode="A" glyph-name="A" horiz-adv-x="741" d="M30 0L291 646L400 628L168 0H30ZM492 0L254 645L436 690L713 0H492ZM184 162V254H517V162H184ZM-14 0L-20 32Q1 49 26 63T79 91L80 0H-14ZM133 0L136 79L274 55L273 0H133ZM394 0L388 32Q409 49 434 63T487
91L498 0H394ZM616 0L619 79L757 55L756 0H616Z" />
<glyph unicode="B" glyph-name="B" horiz-adv-x="717" d="M290 313V384H360Q394 384 414 397T445 432T455 476Q455 506 440 537T399 577L313 561L37 666Q74 668 122 669T222 672T319 673T400 674Q487 674 545 649T632 583T661 501Q661 469 644 434T592 373T503
344L372 321L290 313ZM28 0L22 32Q43 49 68 63T121 91L122 0H28ZM107 0V666H317V0H107ZM294 0L297 103L378 93Q412 89 433 103T465 141T476 191Q476 218 465 244T433 288T384 306H297L314 340L446 356Q527 362 581 340T662 276T689 185Q689 140 663 98T574 28T404
0H294ZM166 589L36 611L37 666H168L166 589Z" />
<glyph unicode="C" glyph-name="C" horiz-adv-x="612" d="M394 -17Q304 -21 239 -2T129 52T58 132T20 227T8 324Q8 392 30 456T97 573T210 655T371 686Q451 686 502 665T589 620L556 467Q501 513 439 543T293 582Q267 554 250 516T225 436T216 350Q216 283 236
229T298 143T402 110L577 164L608 71L394 -17ZM439 415L387 622L589 620Q591 597 588 560T578 483T563 415H439Z" />
<glyph unicode="D" glyph-name="D" horiz-adv-x="757" d="M300 0L288 121Q313 110 335 105T376 100Q416 100 445 119T494 172T522 245T532 327Q532 377 519 425T482 514T424 577L311 561L37 666Q125 671 209 672T382 674Q475 674 544 645T658 567T726 459T749
339Q749 273 727 212T661 104T549 28T390 0H300ZM28 0L22 32Q43 49 68 63T121 91L122 0H28ZM107 0V666H317V0H107ZM166 589L36 611L37 666H168L166 589Z" />
<glyph unicode="E" glyph-name="E" horiz-adv-x="670" d="M28 0L22 32Q43 49 68 63T121 91L122 0H28ZM608 0L429 8L505 227L620 218Q621 189 620 150T615 72T608 0ZM161 589L31 611L32 666H163L161 589ZM481 451L442 657L617 666Q618 643 616 606T609 527T596
451H481ZM107 0V666H317V0H107ZM520 278L280 288V373L520 393V278ZM604 547L275 570L200 666H617L604 547ZM207 0L282 98L606 127L607 0H207Z" />
<glyph unicode="F" glyph-name="F" horiz-adv-x="659" d="M28 0L22 32Q43 49 68 63T121 91L122 0H28ZM292 0L295 79L433 55L432 0H292ZM153 589L23 611L24 666H155L153 589ZM473 443L434 657L609 666Q610 643 608 604T601 521T588 443H473ZM99 0V666H309V0H99ZM574
549L283 570L208 666H609L574 549ZM528 250L288 262V356L528 373V250Z" />
<glyph unicode="G" glyph-name="G" horiz-adv-x="721" d="M400 -20Q309 -25 243 -6T131 49T59 131T20 226T8 321Q8 392 33 457T108 574T229 656T394 686Q477 686 534 665T619 625L588 474Q566 492 539 510T476 545T396 571T295 582Q268 556 251 519T224 440T215
353Q215 291 234 235T295 142T398 101Q428 100 463 104T531 116T586 130L631 67L400 -20ZM461 211Q432 225 405 240T355 272L361 305H459L461 211ZM445 65V305H631V67L445 65ZM567 217L558 305H706L707 258L567 217ZM472 430L417 627L619 625Q621 602 618 568T609
497T595 430H472Z" />
<glyph unicode="H" glyph-name="H" horiz-adv-x="855" d="M107 0V666H317V0H107ZM258 281V383H602V281H258ZM534 0V666H744V0H534ZM168 587L30 611L31 666H171L168 587ZM303 575L302 666H396L402 634Q381 618 357 604T303 575ZM595 587L457 611L458 666H598L595
587ZM730 575L729 666H823L829 634Q808 618 784 604T730 575ZM28 0L22 32Q43 49 68 63T121 91L122 0H28ZM265 0L268 79L406 55L405 0H265ZM455 0L449 32Q470 49 495 63T548 91L549 0H455ZM692 0L695 79L833 55L832 0H692Z" />
<glyph unicode="I" glyph-name="I" horiz-adv-x="428" d="M107 0V666H317V0H107ZM28 0L22 32Q43 49 68 63T121 91L122 0H28ZM265 0L268 79L406 55L405 0H265ZM168 587L30 611L31 666H171L168 587ZM303 575L302 666H396L402 634Q381 618 357 604T303 575Z" />
<glyph unicode="J" glyph-name="J" horiz-adv-x="425" d="M3 -190L-31 -131Q11 -104 43 -71T93 15T112 152V666H321V177Q321 65 282 -5T171 -118T3 -190ZM169 587L31 611L32 666H172L169 587ZM308 575L307 666H401L407 634Q386 618 362 604T308 575Z" />
<glyph unicode="K" glyph-name="K" horiz-adv-x="787" d="M28 0L22 32Q43 49 68 63T121 91L122 0H28ZM249 0L252 79L390 55L389 0H249ZM650 0L652 85L782 55L781 0H650ZM303 575L302 666H396L402 634Q381 618 357 604T303 575ZM589 587L451 611L452 666H592L589
587ZM615 575L614 666H732L738 634Q717 618 681 603T615 575ZM107 0V666H317V0H107ZM268 194L246 313L575 666H675L667 613L268 194ZM518 0L324 277L468 409L770 0H518ZM168 587L30 611L31 666H171L168 587Z" />
<glyph unicode="L" glyph-name="L" horiz-adv-x="643" d="M107 0V666H317V0H107ZM28 0L22 32Q43 49 68 63T121 91L122 0H28ZM215 0L290 98L611 135L628 0H215ZM629 0L438 8L525 272L644 261Q645 225 644 178T640 84T629 0ZM168 587L30 611L31 666H171L168 587ZM303
575L302 666H396L402 634Q381 618 357 604T303 575Z" />
<glyph unicode="M" glyph-name="M" horiz-adv-x="1008" d="M28 0L22 32Q43 49 68 63T121 91L122 0H28ZM196 0L199 87L337 47L336 0H196ZM617 0L611 32Q632 49 657 63T710 91L711 0H617ZM845 0L848 87L986 47L985 0H845ZM108 0L121 650H362L233 519L253 264L251
0H108ZM402 -7L181 605L361 650L544 136V16L402 -7ZM544 16L457 36L689 650L773 613L544 16ZM696 0L695 264L715 523L689 650H887L897 0H696ZM172 563L34 603L35 650H175L172 563ZM879 559L878 650H972L978 618Q957 602 933 588T879 559Z" />
<glyph unicode="N" glyph-name="N" horiz-adv-x="802" d="M516 -14L121 568L122 666H298L672 99L646 13L516 -14ZM28 0L22 32Q43 49 68 63T121 91L122 0H28ZM196 0L199 79L337 55L336 0H196ZM107 0V666H299L221 534L249 280V0H107ZM154 587L32 611L33 666H157L154
587ZM516 -14L597 42L561 370V666H703L695 0L516 -14ZM601 587L463 611L464 666H604L601 587ZM681 575L680 666H774L780 634Q759 618 735 604T681 575Z" />
<glyph unicode="O" glyph-name="O" horiz-adv-x="698" d="M354 -20Q285 -20 223 2T113 68T36 177T8 328Q8 438 53 518T176 642T347 686Q416 686 478 662T587 592T662 478T690 323Q690 237 663 173T589 66T482 2T354 -20ZM372 85Q385 85 393 87T409 93Q437 123
454 184T471 321Q471 371 463 417T438 499T396 557T334 579Q321 579 308 576T283 568Q268 552 255 522T235 449T227 350Q227 289 237 240T266 156T311 103T372 85Z" />
<glyph unicode="P" glyph-name="P" horiz-adv-x="680" d="M282 229L285 349Q300 343 314 340T340 335T363 333Q397 333 418 349T449 391T460 448Q460 471 455 497T441 545T416 577L299 561L24 666L391 674Q483 675 545 643T639 558T671 446Q671 384 636 335T540
259T400 230L282 229ZM28 0L22 32Q43 49 68 63T121 91L122 0H28ZM292 0L295 79L433 55L432 0H292ZM99 0V666H309V0H99ZM153 589L23 611L24 666H155L153 589Z" />
<glyph unicode="Q" glyph-name="Q" horiz-adv-x="735" d="M640 -202L336 -3L371 50L735 -32L640 -202ZM354 -20Q285 -20 223 2T113 68T36 177T8 328Q8 438 53 518T176 642T347 686Q416 686 478 662T587 592T662 478T690 323Q690 237 663 173T589 66T482 2T354
-20ZM372 85Q385 85 393 87T409 93Q437 123 454 184T471 321Q471 371 463 417T438 499T396 557T334 579Q321 579 308 576T283 568Q268 552 255 522T235 449T227 350Q227 289 237 240T266 156T311 103T372 85Z" />
<glyph unicode="R" glyph-name="R" horiz-adv-x="746" d="M290 248L277 365Q300 354 322 349T364 343Q389 343 408 350T440 372T459 408T466 455Q466 488 456 521T424 577L308 561L32 666L391 674Q479 674 543 645T642 568T678 460Q678 401 643 353T549 277T416
249L290 248ZM28 0L22 32Q43 49 68 63T121 91L122 0H28ZM251 0L254 79L392 55L391 0H251ZM107 0V666H317V0H107ZM602 0L605 78L743 55L742 0H602ZM161 589L31 611L32 666H163L161 589ZM494 0L345 288L540 297L724 0H494Z" />
<glyph unicode="S" glyph-name="S" horiz-adv-x="622" d="M315 -19Q275 -19 228 -12T135 8T50 39L101 177Q133 145 170 123T249 90T331 74Q360 87 371 105T383 140Q383 168 363 187T311 223T238 258Q193 279 150 306T77 374T48 473Q48 535 83 583T181 658T329
686Q367 686 409 681T491 666T559 645L503 495Q457 545 403 568T287 596Q264 583 254 563T243 526Q243 501 266 483T325 448T404 411Q449 390 491 363T561 294T589 190Q589 123 552 76T452 5T315 -19ZM276 28L51 39Q49 62 51 100T58 177T71 241H161L276 28ZM430
447L358 638L559 645Q558 614 555 580T548 511T535 447H430Z" />
<glyph unicode="T" glyph-name="T" horiz-adv-x="692" d="M242 0V666H452V0H242ZM153 0L147 32Q168 49 194 63T249 91L250 0H153ZM403 0L406 79L544 55L543 0H403ZM29 419Q23 444 19 480T11 553T6 623T7 672L160 658L135 419H29ZM24 558L7 672Q95 670 163 669T290
668T406 667T531 669T685 672L668 558L347 595L24 558ZM557 419L532 658L686 672Q688 655 687 623T682 554T674 480T664 419H557Z" />
<glyph unicode="U" glyph-name="U" horiz-adv-x="773" d="M404 -20Q315 -20 242 14T126 121T83 307V666H293V257Q293 196 311 159T359 104T427 87Q452 87 471 94T506 114Q523 138 531 184T540 295V666H682V289Q682 200 660 140T599 45T510 -5T404 -20ZM144 587L6
611L7 666H147L144 587ZM279 575L278 666H372L378 634Q357 618 333 604T279 575ZM598 587L460 611L461 666H601L598 587ZM668 575L667 666H761L767 634Q746 618 722 604T668 575Z" />
<glyph unicode="V" glyph-name="V" horiz-adv-x="738" d="M286 -18L42 666H255L371 287L383 144L412 143L468 2Q431 -4 384 -9T286 -18ZM134 587L-4 611L-3 666H137L134 587ZM467 2L357 37L561 666H692L467 2ZM257 575L252 666H350L356 634Q335 618 311 604T257
575ZM590 587L452 611L453 666H593L590 587ZM643 575L638 666H736L742 634Q721 618 697 604T643 575Z" />
<glyph unicode="W" glyph-name="W" horiz-adv-x="1041" d="M268 -18L41 666H254L355 294L360 144L397 143L443 2Q406 -5 362 -9T268 -18ZM443 2L336 37L478 535L594 487L544 315L526 314L499 185L443 2ZM628 -18L420 623L615 664L715 315L723 144L765 143L803
2Q766 -5 722 -9T628 -18ZM803 2L695 37L865 666H995L803 2ZM134 587L-4 611L-3 666H137L134 587ZM255 575L250 666H348L354 634Q333 618 309 604T255 575ZM891 587L753 611L754 666H894L891 587ZM946 575L941 666H1039L1045 634Q1024 618 1000 604T946 575Z" />
<glyph unicode="X" glyph-name="X" horiz-adv-x="727" d="M490 0L35 666H267L723 0H490ZM0 0L-6 32Q15 49 40 63T93 91L98 0H0ZM160 0L163 79L301 55L300 0H160ZM23 0L302 400L408 348L180 0H23ZM398 0L392 32Q413 49 438 63T491 91L496 0H398ZM608 0L607 79L749
55L748 0H608ZM261 575L256 666H354L360 634Q339 618 315 604T261 575ZM477 345L368 377L549 666H688L477 345ZM568 587L430 611L431 666H571L568 587ZM620 575L615 666H713L719 634Q698 618 674 604T620 575ZM154 587L16 611L17 666H157L154 587Z" />
<glyph unicode="Y" glyph-name="Y" horiz-adv-x="702" d="M254 234L25 666H230L344 452L372 363L398 364L419 322L254 234ZM172 0L166 32Q187 49 212 63T265 91L266 0H172ZM396 0L399 79L537 55L536 0H396ZM250 0V334H452V0H250ZM134 587L-4 611L-3 666H137L134
587ZM212 575L207 666H305L311 634Q290 618 266 604T212 575ZM437 248L344 293L532 666H661L437 248ZM568 587L430 611L431 666H571L568 587ZM607 575L602 666H700L706 634Q685 618 661 604T607 575Z" />
<glyph unicode="Z" glyph-name="Z" horiz-adv-x="689" d="M89 -1L31 90L432 611L537 623L603 666L648 578L241 47L147 39L89 -1ZM89 -1L154 97L610 118L627 0L89 -1ZM627 0L432 17L531 252L653 235Q651 172 645 119T627 0ZM73 416Q67 454 65 497T63 583T67 666L251
602L187 416H73ZM104 548L67 666H603L574 588L104 548Z" />
<glyph unicode="[" glyph-name="bracketleft" horiz-adv-x="440" d="M84 -122V712H408L414 648L284 610V-20L414 -58L408 -122H84Z" />
<glyph unicode="\" glyph-name="backslash" horiz-adv-x="417" d="M267 -126L-39 681L107 739L415 -70L267 -126Z" />
<glyph unicode="]" glyph-name="bracketright" horiz-adv-x="440" d="M32 -122L26 -58L156 -20V610L26 648L32 712H356V-122H32Z" />
<glyph unicode="^" glyph-name="asciicircum" horiz-adv-x="483" d="M106 319L8 379L191 650H289L477 380L384 320L245 520H238L106 319Z" />
<glyph unicode="_" glyph-name="underscore" horiz-adv-x="532" d="M10 -221V-124H522V-221H10Z" />
<glyph unicode="`" glyph-name="grave" horiz-adv-x="303" d="M191 535Q149 576 103 621T12 702L132 808L289 611L191 535Z" />
<glyph unicode="a" glyph-name="a" horiz-adv-x="581" d="M435 -17Q412 -17 390 -7T349 22T316 70L297 73V318Q297 365 283 386T252 416Q242 415 232 413T215 406L186 294L72 293Q61 330 57 372T59 454Q93 466 131 475T207 491T278 501T333 505Q363 505 390 498T441
475T486 431Q494 419 496 395T498 329V134Q498 124 504 116T522 108Q534 108 545 108T575 110L578 65L435 -17ZM219 -12Q158 -22 114 -4T47 48T24 117Q24 149 44 183T109 239L331 244V178H299Q284 178 270 176T244 168T227 154T220 132Q220 122 224 110T235 90Q251
92 266 95T297 103T325 111L342 69L219 -12Z" />
<glyph unicode="b" glyph-name="b" horiz-adv-x="589" d="M274 -18Q225 -18 166 -8T52 19L160 145Q182 120 206 106T258 86T316 84Q342 110 355 150T369 232Q369 267 359 297T328 345T278 363Q258 363 236 354T187 328L178 360L356 494Q409 502 449 487T518 438T561
361T576 266Q576 213 559 163T504 71T410 6T274 -18ZM53 19V679L195 737L254 683V40L53 19ZM-22 648L-24 698Q24 715 79 724T195 737L190 651L103 617L-22 648Z" />
<glyph unicode="c" glyph-name="c" horiz-adv-x="479" d="M322 -12Q264 -24 208 -12T107 33T35 118T8 240Q8 320 43 379T137 471T269 504Q318 504 363 488T441 438T484 353L319 274Q303 318 286 350T243 403Q216 375 208 336T199 269Q199 223 214 187T259 129T333
108Q360 108 387 116T444 140L470 81L322 -12Z" />
<glyph unicode="d" glyph-name="d" horiz-adv-x="609" d="M229 -17Q159 -18 110 17T34 110T8 234Q8 284 24 331T74 416T159 476T279 499Q321 499 361 489T445 456L423 315Q405 340 381 358T329 388T268 401Q243 377 230 337T217 254Q217 219 226 190T255 142T303
124Q323 124 353 134T415 168L407 119L229 -17ZM463 -17Q440 -17 418 -7T378 22T345 70L326 73V679L468 737L527 683V134Q527 124 533 116T551 108Q563 108 574 108T604 110L607 65L463 -17ZM251 648L249 698Q297 715 352 724T468 737L463 651L376 617L251 648Z"
/>
<glyph unicode="e" glyph-name="e" horiz-adv-x="516" d="M331 -11Q270 -23 212 -11T108 33T35 116T8 236Q8 298 30 347T89 432T174 485T272 504Q309 504 349 493T425 455T481 386T503 278L323 271Q328 301 321 333T296 387T252 413Q232 399 219 373T199 316T192
257Q192 208 210 175T260 125T334 108Q366 108 395 118T461 147L489 85L331 -11ZM444 219L134 220L118 299L395 318L503 278L444 219Z" />
<glyph unicode="f" glyph-name="f" horiz-adv-x="408" d="M85 0V526Q85 589 114 640T192 721T302 751Q337 751 380 739T463 702L361 527Q330 558 293 584T211 634L288 467L287 437V0H85ZM20 0L19 35Q51 55 85 68T151 88L143 0H20ZM214 0L247 107Q280 97 313 83T378
49L377 0H214ZM7 350L6 406Q42 431 78 454T149 499L231 426L228 351L7 350ZM230 349V474H399L400 418L348 349H230Z" />
<glyph unicode="g" glyph-name="g" horiz-adv-x="591" d="M236 -252Q200 -252 163 -245T92 -219T36 -171T7 -94L164 44L260 51Q225 32 203 15T169 -18T158 -49Q158 -80 191 -94T270 -109Q298 -109 326 -104T378 -88T416 -62Q372 -47 315 -35T193 -15T61 -4L39
78Q65 104 91 125T145 164T206 197L273 180Q252 168 234 155T201 127Q245 127 289 123T377 112T462 95T541 75Q562 33 558 -12T528 -100T459 -177T359 -232T236 -252ZM266 156Q182 156 129 181T51 246T25 326Q25 370 53 411T136 479T272 506Q347 506 402 482T486
418T516 331Q516 286 488 246T404 181T266 156ZM295 236Q308 244 315 268T323 320Q323 340 318 360T302 395T276 418T241 419Q231 412 225 385T218 329Q218 302 226 279T251 243T295 236ZM413 352Q404 385 404 421T420 491T468 545T556 567L587 413Q496 429 435
375L413 352Z" />
<glyph unicode="h" glyph-name="h" horiz-adv-x="657" d="M83 0V679L225 737L284 683V0H83ZM381 0V281Q381 322 364 346T311 369Q288 368 263 357T212 329T163 294L162 315Q202 360 244 396T330 457T416 498Q436 499 464 494T521 473T570 425Q575 417 577 403T581
364T582 294V0H381ZM8 648L6 698Q54 715 109 724T225 737L220 651L133 617L8 648ZM9 0L8 35Q40 55 74 68T140 88L132 0H9ZM173 0L206 115Q239 105 272 89T337 49L336 0H173ZM322 0L321 35Q353 55 387 68T453 88L445 0H322ZM482 0L515 115Q548 105 581 89T646 49L645
0H482Z" />
<glyph unicode="i" glyph-name="i" horiz-adv-x="367" d="M83 0V445L225 503L284 450V0H83ZM8 0L7 35Q39 55 73 68T139 88L131 0H8ZM176 0L209 115Q242 105 283 89T356 49L355 0H176ZM8 415L6 464Q54 481 109 491T225 503L220 417L133 383L8 415ZM194 543Q155
561 121 587T61 645Q82 686 110 720T172 780Q210 759 242 729T298 664Q279 628 253 597T194 543Z" />
<glyph unicode="j" glyph-name="j" horiz-adv-x="346" d="M4 -222L-13 -181Q25 -168 53 -143T82 -69V445L224 503L283 450V-39Q283 -76 256 -116T168 -186T4 -222ZM7 415L5 464Q53 481 108 491T224 503L219 417L132 383L7 415ZM193 543Q154 561 120 587T60 645Q81
686 109 720T171 780Q209 758 241 729T297 664Q278 627 252 597T193 543Z" />
<glyph unicode="k" glyph-name="k" horiz-adv-x="645" d="M84 0V679L226 737L285 683V0H84ZM228 178L218 205L251 225L412 444L546 503L597 430L431 218L228 178ZM410 -3Q399 8 390 20T370 49L270 208L444 268L582 76Q590 66 602 60T628 45L624 -3H410ZM8 648L6
698Q54 715 109 724T225 737L220 651L133 617L8 648ZM327 415L325 464Q357 476 393 484T467 497T546 503L541 418L454 384L327 415ZM9 0L8 35Q40 55 74 68T140 88L132 0H9ZM199 0L216 91Q245 85 275 75T331 49L327 0H199Z" />
<glyph unicode="l" glyph-name="l" horiz-adv-x="371" d="M83 0V679L225 737L284 683V0H83ZM8 0L7 35Q39 55 73 68T139 88L131 0H8ZM176 0L209 115Q242 105 283 89T356 49L355 0H176ZM8 648L6 698Q54 715 109 724T225 737L220 651L133 617L8 648Z" />
<glyph unicode="m" glyph-name="m" horiz-adv-x="968" d="M83 0V445L225 503L284 442V0H83ZM380 0V281Q380 322 363 346T310 369Q287 368 262 357T211 329T162 294L161 315Q201 360 243 396T329 457T415 498Q435 499 463 494T520 473T569 425Q574 417 576 403T580
364T581 294V0H380ZM677 0V281Q677 322 660 346T607 369Q584 368 559 357T508 329T459 294L458 315Q498 360 540 396T626 457T712 498Q732 499 760 494T817 473T866 425Q871 417 873 403T877 364T878 294V0H677ZM8 415L6 464Q54 481 109 491T225 503L220 417L133
383L8 415ZM9 0L8 35Q40 55 74 68T140 88L132 0H9ZM175 0L208 115Q241 105 274 89T339 49L338 0H175ZM329 0L328 35Q360 55 394 68T460 88L452 0H329ZM472 0L505 115Q538 105 572 89T637 49L635 0H472ZM627 0L626 35Q658 55 692 68T758 88L750 0H627ZM776 0L809
115Q842 105 884 89T957 49L955 0H776Z" />
<glyph unicode="n" glyph-name="n" horiz-adv-x="666" d="M83 0V445L225 503L284 442V0H83ZM382 0V281Q382 322 365 346T312 369Q289 368 264 357T213 329T164 294L163 315Q203 360 245 396T331 457T417 498Q437 499 465 494T522 473T571 425Q576 417 578 403T582
364T583 294V0H382ZM8 415L6 464Q54 481 109 491T225 503L220 417L133 383L8 415ZM9 0L8 35Q40 55 74 68T140 88L132 0H9ZM175 0L208 115Q241 105 274 89T339 49L338 0H175ZM324 0L323 35Q355 55 389 68T455 88L447 0H324ZM474 0L507 115Q540 105 582 89T655 49L653
0H474Z" />
<glyph unicode="o" glyph-name="o" horiz-adv-x="539" d="M272 -20Q205 -20 145 11T46 101T8 245Q8 329 45 386T141 474T267 504Q333 504 392 474T489 386T526 241Q526 158 491 100T398 11T272 -20ZM275 78Q285 78 296 82Q306 91 312 112T321 163T324 229Q324
276 318 313T298 373T261 396Q254 396 247 395T234 389Q223 372 217 332T210 239Q210 194 216 158T237 100T275 78Z" />
<glyph unicode="p" glyph-name="p" d="M351 -1Q295 -1 227 17T102 65L180 136Q198 122 225 111T284 93T345 87Q366 111 378 150T391 232Q391 266 382 296T355 344T307 363Q288 363 265 354T216 327L207 359L385 494Q438 502 478 487T547 438T590 360T605 265Q605
215 590 168T543 82T464 22T351 -1ZM17 -201L16 -165Q48 -152 82 -139T148 -113L140 -201H17ZM218 -201L251 -86Q284 -102 317 -118T382 -152L381 -201H218ZM82 -201V445L224 503L283 450V-201H82ZM8 415L6 464Q54 481 109 491T225 503L229 455L133 383L8 415Z"
/>
<glyph unicode="q" glyph-name="q" horiz-adv-x="593" d="M229 -10Q159 -11 110 24T34 117T8 239Q8 308 40 368T137 466T302 504Q355 504 417 492T528 462L423 322Q405 347 381 365T329 395T268 407Q243 384 230 343T217 260Q217 225 226 196T255 148T303 130Q323
130 353 140T415 174L407 126L229 -10ZM224 -201L223 -165Q255 -146 289 -133T355 -113L350 -201H224ZM417 -201L450 -86Q483 -96 516 -112T581 -152L580 -201H417ZM327 -201V418L339 453L554 504L581 434L528 381V-201H327Z" />
<glyph unicode="r" glyph-name="r" horiz-adv-x="517" d="M83 0V445L225 503L284 444V0H83ZM221 190L197 290L382 487Q417 501 456 495T520 467Q522 448 519 418T511 354T497 289T479 234H372L348 352Q323 335 304 315T266 266T221 190ZM8 415L6 464Q54 481 109
491T225 503L220 417L133 383L8 415ZM9 0L8 35Q40 55 74 68T140 88L132 0H9ZM227 0L260 107Q282 101 305 93T351 74T395 49L394 0H227Z" />
<glyph unicode="s" glyph-name="s" horiz-adv-x="472" d="M234 -20Q185 -20 128 -7T15 34L78 180Q120 146 164 119T252 72Q260 78 263 87T267 103Q267 121 250 135T207 163T150 193T93 229T49 277T32 342Q32 389 61 425T142 483T263 504Q303 504 347 496T427 470L390
379Q360 397 323 408T254 421Q227 416 219 406T211 384Q211 365 228 350T273 321T330 290T388 253T432 204T450 138Q450 71 394 26T234 -20ZM313 326L250 480L427 470Q431 434 427 398T412 326H313Z" />
<glyph unicode="t" glyph-name="t" horiz-adv-x="421" d="M218 -17Q181 -18 149 -3T96 40T75 99V450L146 613H236L276 443V164Q276 142 286 134T315 125Q332 125 353 126T391 129L395 76L218 -17ZM-3 350L-4 406Q34 441 83 474T194 540L222 426L218 351L-3 350ZM232
349V474H405V417L354 349H232Z" />
<glyph unicode="u" glyph-name="u" horiz-adv-x="656" d="M243 -17Q224 -19 196 -13T139 10T90 60Q85 69 82 82T78 121T77 191V449L219 503L278 450V194Q278 154 295 134T349 116Q385 118 422 140T497 188L498 167Q460 123 418 87T331 24T243 -17ZM2 415L0 464Q48
481 103 491T219 503L214 417L127 383L2 415ZM510 -17Q487 -16 465 -5T425 26T392 74L373 77V449L515 503L574 450V134Q574 124 580 116T598 108Q610 108 621 108T651 110L654 65L510 -17ZM322 419L320 468Q362 484 411 493T515 503L510 417L423 383L322 419Z"
/>
<glyph unicode="v" glyph-name="v" horiz-adv-x="565" d="M179 -4L8 451L214 482L288 244L302 178H313Q320 227 325 278T336 382T344 482H561Q509 365 461 242T359 3Q335 -4 301 -7T233 -9T179 -4ZM160 296L-31 426V482H213L160 296ZM230 392L110 482H288L289
429Q276 418 262 409T230 392ZM470 296L279 426V482H523L470 296ZM510 392L390 482H568L569 429Q556 418 542 409T510 392Z" />
<glyph unicode="w" glyph-name="w" horiz-adv-x="802" d="M165 -4L0 451L202 482L276 245L296 161H308L363 298L440 273L421 176L346 4Q322 -3 287 -6T219 -9T165 -4ZM447 -4L274 476L477 480L542 243L557 161H568L575 482H795L620 4Q596 -3 563 -6T499 -9T447
-4ZM152 296L-31 426V482H201L152 296ZM197 392L77 482H255L256 429Q243 418 229 409T197 392ZM712 296L529 426V482H761L712 296ZM747 392L627 482H805L806 429Q793 418 779 409T747 392Z" />
<glyph unicode="x" glyph-name="x" horiz-adv-x="602" d="M365 0L46 445L248 482L580 0H365ZM33 0L7 38L223 259L266 174L234 0H33ZM363 218L334 314L365 482H552L570 434L363 218ZM211 296L13 426V482H248L211 296ZM222 408L122 482H300L301 437Q284 427 264
420T222 408ZM422 355L313 426V482H548L422 355ZM502 408L402 482H580L581 437Q564 428 544 421T502 408ZM4 0L3 44Q36 55 69 66T135 88L127 0H4ZM120 0L155 115Q188 105 221 89T286 49L285 0H120ZM304 0L303 44Q336 55 369 66T435 88L427 0H304ZM430 0L465 115Q498
105 531 89T596 49L595 0H430Z" />
<glyph unicode="y" glyph-name="y" horiz-adv-x="584" d="M149 -234L46 -56Q107 -39 166 -20T282 22Q252 29 225 36T169 50L23 449L223 482L284 254L289 186H305Q315 234 324 283T342 383T358 482H566Q549 422 532 356T495 223T450 92Q423 23 385 -34T290 -140T149
-234ZM169 296L-31 426V482H222L169 296ZM223 392L103 482H289L290 429Q277 418 259 409T223 392ZM491 296L291 426V482H544L491 296ZM521 392L401 482H587L588 429Q575 418 557 409T521 392Z" />
<glyph unicode="z" glyph-name="z" horiz-adv-x="537" d="M76 -18L10 37L323 473L403 465L463 503L526 442L227 38L154 36L76 -18ZM474 -21L98 33L125 76L402 144L456 160L514 177Q504 126 495 78T474 -21ZM46 297Q39 337 38 389T44 482L225 450L153 297H46ZM44
367L43 482H462L423 436L44 367Z" />
<glyph unicode="{" glyph-name="braceleft" horiz-adv-x="565" d="M471 -145Q369 -140 300 -110T196 -41T161 34V142Q161 183 156 209T130 250T62 268L68 327Q111 330 130 344T155 384T161 443V537Q161 577 193 618T296 691T478 729L484 608H359L375 449Q380 410
364 372T317 304V295Q347 264 363 227T375 149L359 -12L481 -24L471 -145Z" />
<glyph unicode="|" glyph-name="bar" horiz-adv-x="333" d="M93 -225V735H238L239 -225H93Z" />
<glyph unicode="}" glyph-name="braceright" horiz-adv-x="567" d="M95 -145L85 -24L207 -12L191 149Q187 189 203 226T249 295V304Q220 334 204 372T191 449L207 608H82L88 729Q201 722 270 691T372 619T405 537V443Q405 409 410 384T435 345T498 327L504 268Q457
265 436 251T410 210T405 142V34Q405 -1 370 -40T266 -110T95 -145Z" />
<glyph unicode="~" glyph-name="asciitilde" horiz-adv-x="607" d="M408 162Q388 162 359 174T298 203T241 231T201 244Q187 244 168 228T122 185L63 229Q109 299 140 338T200 377Q223 377 276 353T409 288L497 360L547 317Q504 244 473 203T408 162Z" />
<glyph unicode="&#xa0;" glyph-name="uni00A0" horiz-adv-x="265" />
<glyph unicode="&#xa1;" glyph-name="exclamdown" horiz-adv-x="366" d="M113 239H250L300 -210Q271 -223 228 -227T142 -228T65 -212L113 239ZM195 525Q265 489 288 415Q277 378 247 349T178 303Q139 325 113 356T80 432Q115 499 195 525Z" />
<glyph unicode="&#xa2;" glyph-name="cent" horiz-adv-x="479" d="M218 469V597H328V469H218ZM218 -117V11H328V-117H218ZM322 4Q264 -7 208 4T107 46T35 126T8 242Q8 317 43 373T137 460T269 491Q318 491 363 476T441 429T484 349L319 274Q303 316 286 346T243
396Q216 370 208 333T199 269Q199 203 233 160T333 117Q360 117 387 125T444 147L470 92L322 4Z" />
<glyph unicode="&#xa3;" glyph-name="sterling" horiz-adv-x="617" d="M56 0Q105 63 121 115T132 211T111 294T81 371T67 449Q67 489 85 528T139 599T226 650T344 670Q403 670 462 655T565 615L502 473Q459 515 417 535T325 565Q299 551 290 531T281 485Q281 455
289 420T306 346T317 265T309 179T265 90T173 0H56ZM24 0L18 32Q39 49 64 63T117 91L118 0H24ZM139 0L259 106L567 127L584 0H139ZM18 239L12 276L55 317H243L280 335H435L441 298L398 257H262L224 239H18ZM583 0L366 8L482 249L573 241Q578 222 580 189T584 119T586
50T583 0ZM453 415L341 617L566 615Q568 592 568 555T563 479T552 415H453Z" />
<glyph unicode="&#xa4;" glyph-name="currency" horiz-adv-x="510" d="M255 156Q200 156 157 182T90 255T65 357Q65 418 93 462T166 530T257 554Q306 554 348 532T417 466T443 357Q443 292 415 247T344 179T255 156ZM104 121L50 170L132 259L181 213L104 121ZM412
123L330 212L382 263L464 174L412 123ZM270 259Q276 259 285 260T302 263Q315 277 323 300T331 348Q331 374 322 397T293 435T239 450Q226 450 208 447Q194 434 186 412T177 364Q177 338 187 314T217 275T270 259ZM125 447L44 538L99 587L177 500L125 447ZM380
446L333 495L410 586L466 539L380 446Z" />
<glyph unicode="&#xa5;" glyph-name="yen" horiz-adv-x="675" d="M95 235L89 272L132 311H554L560 274L517 235H95ZM95 117L89 154L132 193H554L560 156L517 117H95ZM227 234L-2 666H203L317 452L345 363L371 364L392 322L227 234ZM145 0L139 32Q160 49 185 63T238
91L239 0H145ZM369 0L372 79L510 55L509 0H369ZM223 0V334H425V0H223ZM107 587L-31 611L-30 666H110L107 587ZM185 575L180 666H278L284 634Q263 618 239 604T185 575ZM410 248L317 293L505 666H634L410 248ZM541 587L403 611L404 666H544L541 587ZM580 575L575
666H673L679 634Q658 618 634 604T580 575Z" />
<glyph unicode="&#xa6;" glyph-name="brokenbar" horiz-adv-x="332" d="M93 358V616H238V358H93ZM93 -76V182H238V-76H93Z" />
<glyph unicode="&#xa7;" glyph-name="section" horiz-adv-x="523" d="M365 116L307 159Q329 174 338 188T347 217Q347 246 324 266T269 301T206 331Q157 355 124 381T75 437T58 502Q58 552 87 590T169 649T288 671Q327 671 374 663T459 636L418 535Q391 556 350
571T268 588Q247 582 234 567T221 532Q221 513 234 499T271 472T327 443Q357 428 386 411T438 373T476 326T490 265Q490 215 458 177T365 116ZM262 -150Q232 -150 196 -144T122 -124T48 -89L127 48Q153 24 179 6T232 -27T288 -56Q302 -48 310 -36T319 -11Q319 7
306 19T270 42T222 65Q175 89 136 113T73 169T49 243Q49 302 94 344T223 408L249 350Q224 334 208 317T191 277Q191 249 215 231T273 200T339 171Q391 146 427 106T464 9Q464 -37 438 -73T367 -129T262 -150ZM346 484L282 638L459 636Q461 613 460 588T456 536T445
484H346Z" />
<glyph unicode="&#xa8;" glyph-name="dieresis" horiz-adv-x="556" d="M419 548Q345 573 309 637Q316 680 341 710T402 760Q439 744 469 717T509 654Q485 583 419 548ZM162 548Q88 573 52 637Q59 680 84 710T145 760Q182 744 212 717T252 654Q228 583 162 548Z" />
<glyph unicode="&#xa9;" glyph-name="copyright" horiz-adv-x="769" d="M385 -26Q310 -26 245 1T130 77T52 191T24 332Q24 407 51 472T128 587T241 664T381 692Q456 692 521 665T637 588T716 472T745 330Q745 255 717 190T640 77T525 1T385 -26ZM431 137Q371 130
316 149T225 214T190 330Q190 392 218 436T293 505T398 529Q451 529 496 504T568 407L441 346Q430 383 416 408T376 453Q357 433 348 404T339 351Q339 320 354 296T397 257T468 242Q488 242 503 245T538 255L556 208L431 137ZM382 57Q442 57 493 78T581 138T640
225T661 332Q661 390 640 440T580 528T492 587T385 609Q328 609 278 588T190 528T131 439T109 329Q109 271 129 222T187 135T274 78T382 57Z" />
<glyph unicode="&#xaa;" glyph-name="ordfeminine" horiz-adv-x="453" d="M314 296Q289 297 267 311T231 353H224V506Q224 536 214 549T193 567Q186 567 178 566T165 564L144 488L61 487Q57 512 55 541T55 596Q87 607 121 614T190 624T256 628Q289 626 313 613T353
577Q358 569 359 554T360 513V400Q360 393 364 388T376 382Q384 382 392 382T412 383L413 354L314 296ZM31 188V255H423V188H31ZM165 300Q122 293 93 303T49 335T34 380Q34 401 47 423T88 460L239 461L240 416L209 419Q196 420 185 417T167 408T160 391Q160 384
163 379T171 369Q181 370 193 371T216 375T236 380L249 359L165 300Z" />
<glyph unicode="&#xab;" glyph-name="guillemotleft" horiz-adv-x="657" d="M506 29L330 207V299L506 480L598 415L511 253L605 99L506 29ZM228 29L52 207V299L228 480L320 415L233 253L327 99L228 29Z" />
<glyph unicode="&#xac;" glyph-name="logicalnot" horiz-adv-x="592" d="M52 172V282H540V172H52ZM423 0V282H540V0H423Z" />
<glyph unicode="&#xad;" glyph-name="uni00AD" horiz-adv-x="500" d="M99 213L34 316L59 365H379L444 262L419 213H99Z" />
<glyph unicode="&#xae;" glyph-name="registered" horiz-adv-x="575" d="M330 379L269 495L351 499L425 379H330ZM287 229Q206 229 144 265T46 363T11 503Q11 583 47 645T147 742T290 778Q369 778 430 743T527 646T563 505Q563 429 529 366T432 266T287 229ZM282
291Q346 291 394 318T469 393T497 503Q497 566 470 614T395 690T287 717Q227 717 180 690T105 613T77 498Q77 434 103 388T176 316T282 291ZM178 379V640H261V379H178ZM248 477V518Q256 517 264 516T280 514Q303 514 313 525T324 555Q324 570 318 582T300 602L255
595L210 640H297Q352 640 383 617T414 558Q414 527 388 502T311 477H248ZM200 606L146 614V640H201L200 606ZM145 379L142 394Q148 399 156 403T172 411T186 418L184 379H145ZM235 379L236 412L293 403L292 379H235ZM377 379L378 412L435 403V379H377Z" />
<glyph unicode="&#xaf;" glyph-name="overscore" horiz-adv-x="454" d="M68 568L62 652Q91 666 121 671T175 677H424L429 618L382 568H68Z" />
<glyph unicode="&#xb0;" glyph-name="degree" horiz-adv-x="374" d="M174 380Q136 380 103 397T50 447T30 521Q30 561 48 593T99 644T170 663Q211 663 243 644T295 593T314 521Q314 457 275 419T174 380ZM177 466Q182 466 188 467T200 469Q208 478 211 489T215
514Q215 537 203 556T165 575Q153 575 139 569Q126 550 126 525Q126 503 138 485T177 466Z" />
<glyph unicode="&#xb1;" glyph-name="plusminus" horiz-adv-x="561" d="M222 167V342H52V451H222V626H339V451H509V342H339V167H222ZM53 0V109H506V0H53Z" />
<glyph unicode="&#xb2;" glyph-name="uni00B2" horiz-adv-x="336" d="M50 415L30 468L98 527Q128 553 146 574T172 612T180 644Q180 666 167 682T131 699Q123 699 113 696T92 687L33 707Q64 730 99 740T166 751Q225 751 261 720T297 645Q297 608 266 570T173 496L177
489L309 524L291 415H50ZM45 593Q42 605 39 627T34 672T33 707L149 706L110 593H45Z" />
<glyph unicode="&#xb3;" glyph-name="uni00B3" horiz-adv-x="345" d="M118 540L114 592H126Q149 592 162 600T182 619T189 643Q189 664 174 680T129 696Q117 696 97 693T61 678L42 717Q63 731 100 741T172 751Q231 751 266 721T301 654Q301 634 290 615T254 585V581L118
540ZM105 614H50Q47 626 45 646T42 686T42 717L163 725L105 614ZM165 405Q134 405 98 411T30 432L56 541Q84 516 114 494T169 458Q183 464 189 474T195 495Q195 512 182 525T143 538H110L107 592H114L215 594L213 584Q254 591 285 568T316 503Q316 469 294 448T238
416T165 405Z" />
<glyph unicode="&#xb4;" glyph-name="acute" horiz-adv-x="303" d="M112 535L14 611L171 808L291 702Q246 666 200 621T112 535Z" />
<glyph unicode="&#xb5;" glyph-name="uni00B5" horiz-adv-x="623" d="M45 -227L44 474Q64 479 98 484T171 492T245 494V194Q245 154 263 134T317 116Q341 118 365 128T415 154T466 188L467 167Q427 121 384 87T299 27T218 -13Q199 -12 183 -2T148 28L248 -183Q240
-194 218 -205T167 -224T105 -233T45 -227ZM124 17V49H184V17H124ZM477 -17Q454 -17 432 -6T392 25T359 74L340 77V474Q360 479 394 484T467 492T541 494V134Q541 124 547 116T565 108Q577 108 588 108T618 110L621 65L477 -17Z" />
<glyph unicode="&#xb6;" glyph-name="paragraph" horiz-adv-x="718" d="M188 241Q130 257 88 292T23 374T0 470Q0 513 19 554T78 629T183 679T337 692L703 646L696 573L384 588Q331 591 288 569T219 504T193 403Q193 369 202 339T226 278L188 241ZM194 -165L188
-121Q212 -110 242 -101T295 -87T318 -82V-165H194ZM552 -165L555 -96L693 -112L692 -165H552ZM295 -166V609H419V-166H295ZM490 -166V609H614V-166H490Z" />
<glyph unicode="&#xb7;" glyph-name="middot" horiz-adv-x="309" d="M154 179Q135 187 111 203T65 238T30 275Q48 311 75 346T130 397Q152 388 175 372T217 336T249 301Q236 268 210 234T154 179Z" />
<glyph unicode="&#xb8;" glyph-name="cedilla" horiz-adv-x="298" d="M56 -273L35 -239Q79 -224 102 -202T127 -160T113 -127T58 -118L31 -71L94 6H167L133 -56Q172 -56 203 -68T251 -99T268 -142Q267 -174 243 -205T171 -255T56 -273Z" />
<glyph unicode="&#xb9;" glyph-name="uni00B9" horiz-adv-x="286" d="M94 415V700L215 711V415H94ZM31 415L28 430Q39 440 61 451T101 466L102 415H31ZM202 415L204 466L271 444V415H202ZM36 620L16 662L165 743L176 719L169 670L36 620ZM161 702L164 743L215
711L161 702Z" />
<glyph unicode="&#xba;" glyph-name="ordmasculine" horiz-adv-x="442" d="M208 284Q161 284 120 305T54 364T28 457Q28 514 55 552T125 611T211 631Q257 631 296 610T361 550T386 456Q386 401 361 363T296 304T208 284ZM16 188V255H400V188H16ZM216 362Q221 362
223 362T229 363Q235 366 240 386T246 441Q246 475 241 497T227 531T202 542Q198 542 195 541T187 539Q180 535 175 512T169 455Q169 421 174 401T191 371T216 362Z" />
<glyph unicode="&#xbb;" glyph-name="guillemotright" horiz-adv-x="657" d="M429 29L330 99L424 253L337 415L429 480L605 299V207L429 29ZM151 29L52 99L146 253L59 415L151 480L327 299V207L151 29Z" />
<glyph unicode="&#xbc;" glyph-name="onequarter" horiz-adv-x="834" d="M94 590V875L215 886V590H94ZM31 590L28 605Q39 615 61 626T101 641L102 590H31ZM202 590L204 641L271 619V590H202ZM36 795L16 837L165 918L176 894L169 845L36 795ZM161 877L164 918L215
886L161 877ZM153 10L81 78L673 698L744 628L153 10ZM510 70L486 125L659 336L697 323L720 278L695 277L572 113L550 129L814 132V92L794 70H510ZM578 0L575 15Q589 25 612 35T654 49L656 0H578ZM732 0L734 44L793 30V0H732ZM648 0V151L668 269L658 336L757 319V0H648Z"
/>
<glyph unicode="&#xbd;" glyph-name="onehalf" horiz-adv-x="810" d="M94 590V875L215 886V590H94ZM31 590L28 605Q39 615 61 626T101 641L102 590H31ZM202 590L204 641L271 619V590H202ZM36 795L16 837L165 918L176 894L169 845L36 795ZM161 877L164 918L215
886L161 877ZM153 10L81 78L673 698L744 628L153 10ZM542 0L522 53L590 112Q620 138 638 159T664 197T672 229Q672 251 659 267T623 284Q615 284 605 281T584 272L525 292Q556 315 591 325T658 336Q717 336 753 305T789 230Q789 193 758 155T665 81L669 74L801
109L783 0H542ZM537 178Q534 190 531 212T526 257T525 292L641 291L602 178H537Z" />
<glyph unicode="&#xbe;" glyph-name="threequarters" horiz-adv-x="868" d="M367 715L363 767H375Q398 767 411 775T431 794T438 818Q438 839 423 855T378 871Q366 871 346 868T310 853L291 892Q312 906 349 916T421 926Q480 926 515 896T550 829Q550 809 539
790T503 760V756L367 715ZM354 789H299Q296 801 294 821T291 861T291 892L412 900L354 789ZM414 580Q383 580 347 586T279 607L305 716Q333 691 363 669T418 633Q432 639 438 649T444 670Q444 687 431 700T392 713H359L356 767H363L464 769L462 759Q503 766 534
743T565 678Q565 644 543 623T487 591T414 580ZM187 10L115 78L707 698L778 628L187 10ZM544 70L520 125L693 336L731 323L754 278L729 277L606 113L584 129L848 132V92L828 70H544ZM612 0L609 15Q623 25 646 35T688 49L690 0H612ZM766 0L768 44L827 30V0H766ZM682
0V151L702 269L692 336L791 319V0H682Z" />
<glyph unicode="&#xbf;" glyph-name="questiondown" horiz-adv-x="661" d="M430 216Q430 170 416 138T382 81T342 35T307 -7T293 -55Q293 -79 306 -103T351 -139Q401 -139 441 -116T536 -49L575 -179Q541 -209 485 -237T344 -265Q266 -265 208 -238T118 -164T85
-57Q85 -14 100 14T140 64T189 106T235 152T264 216H430ZM323 490Q403 464 438 397Q432 353 406 322T340 268Q302 285 272 314T230 380Q253 454 323 490ZM551 16Q558 -11 564 -49T573 -122T574 -178L348 -187L436 16H551Z" />
<glyph unicode="&#xc0;" glyph-name="Agrave" horiz-adv-x="741" d="M30 0L291 646L400 628L168 0H30ZM492 0L254 645L436 690L713 0H492ZM184 162V254H517V162H184ZM-14 0L-20 32Q1 49 26 63T79 91L80 0H-14ZM133 0L136 79L274 55L273 0H133ZM394 0L388 32Q409
49 434 63T487 91L498 0H394ZM616 0L619 79L757 55L756 0H616ZM461 684Q399 710 330 735T197 784L263 922L512 773L461 684Z" />
<glyph unicode="&#xc1;" glyph-name="Aacute" horiz-adv-x="741" d="M30 0L291 646L400 628L168 0H30ZM492 0L254 645L436 690L713 0H492ZM184 162V254H517V162H184ZM-14 0L-20 32Q1 49 26 63T79 91L80 0H-14ZM133 0L136 79L274 55L273 0H133ZM394 0L388 32Q409
49 434 63T487 91L498 0H394ZM616 0L619 79L757 55L756 0H616ZM260 684L209 773L458 922L524 784Q461 760 392 735T260 684Z" />
<glyph unicode="&#xc2;" glyph-name="Acircumflex" horiz-adv-x="741" d="M30 0L291 646L400 628L168 0H30ZM492 0L254 645L436 690L713 0H492ZM184 162V254H517V162H184ZM-14 0L-20 32Q1 49 26 63T79 91L80 0H-14ZM133 0L136 79L274 55L273 0H133ZM394 0L388
32Q409 49 434 63T487 91L498 0H394ZM616 0L619 79L757 55L756 0H616ZM207 707L139 769L297 944H428L585 769L521 707L360 823L207 707Z" />
<glyph unicode="&#xc3;" glyph-name="Atilde" horiz-adv-x="741" d="M30 0L291 646L400 628L168 0H30ZM492 0L254 645L436 690L713 0H492ZM184 162V254H517V162H184ZM-14 0L-20 32Q1 49 26 63T79 91L80 0H-14ZM133 0L136 79L274 55L273 0H133ZM394 0L388 32Q409
49 434 63T487 91L498 0H394ZM616 0L619 79L757 55L756 0H616ZM472 700Q452 700 423 712T362 741T305 769T265 782Q251 782 232 766T186 723L127 767Q173 837 204 876T264 915Q287 915 340 891T473 826L561 898L611 855Q568 782 537 741T472 700Z" />
<glyph unicode="&#xc4;" glyph-name="Adieresis" horiz-adv-x="741" d="M30 0L291 646L400 628L168 0H30ZM492 0L254 645L436 690L713 0H492ZM184 162V254H517V162H184ZM-14 0L-20 32Q1 49 26 63T79 91L80 0H-14ZM133 0L136 79L274 55L273 0H133ZM394 0L388 32Q409
49 434 63T487 91L498 0H394ZM616 0L619 79L757 55L756 0H616ZM499 724Q425 749 389 813Q396 856 421 886T482 936Q519 920 549 893T589 830Q565 759 499 724ZM242 724Q168 749 132 813Q139 856 164 886T225 936Q262 920 292 893T332 830Q308 759 242 724Z" />
<glyph unicode="&#xc5;" glyph-name="Aring" horiz-adv-x="741" d="M30 0L291 646L400 628L168 0H30ZM492 0L254 645L436 690L713 0H492ZM184 162V254H517V162H184ZM-14 0L-20 32Q1 49 26 63T79 91L80 0H-14ZM133 0L136 79L274 55L273 0H133ZM394 0L388 32Q409
49 434 63T487 91L498 0H394ZM616 0L619 79L757 55L756 0H616ZM365 709Q310 709 272 743T233 836Q233 891 269 928T360 965Q414 965 451 928T488 833Q488 778 454 744T365 709ZM362 760Q387 760 403 776T419 817Q419 843 402 859T360 876Q335 876 319 860T302 818Q302
791 320 776T362 760Z" />
<glyph unicode="&#xc6;" glyph-name="AE" horiz-adv-x="982" d="M-14 0L-20 33Q-6 44 11 54T46 74T79 92L80 0H-14ZM133 0L136 79L274 55L273 0H133ZM339 0L333 33Q347 44 364 54T399 74T432 92L433 0H339ZM920 0L741 8L817 227L932 218Q933 189 932 150T927 72T920
0ZM390 589L260 611L261 666H452L390 589ZM792 451L753 657L928 666Q929 643 927 606T920 527T907 451H792ZM30 0L366 655L474 630L160 0H30ZM193 162V254H526V162H193ZM418 0V666H620V0H418ZM831 278L591 288V373L831 393V278ZM915 547L586 568L511 666H928L915
547ZM518 0L593 106L914 127L903 0H518Z" />
<glyph unicode="&#xc7;" glyph-name="Ccedilla" horiz-adv-x="612" d="M394 -17Q304 -21 239 -2T129 52T58 132T20 227T8 324Q8 392 30 456T97 573T210 655T371 686Q451 686 502 665T589 620L556 467Q501 513 439 543T293 582Q267 554 250 516T225 436T216 350Q216
283 236 229T298 143T402 110L577 164L608 71L394 -17ZM439 415L387 622L589 620Q591 597 588 560T578 483T563 415H439ZM260 -273L239 -239Q283 -224 306 -202T331 -160T317 -127T262 -118L235 -71L298 6H371L337 -56Q376 -56 407 -68T455 -99T472 -142Q471 -174
447 -205T375 -255T260 -273Z" />
<glyph unicode="&#xc8;" glyph-name="Egrave" horiz-adv-x="670" d="M28 0L22 32Q43 49 68 63T121 91L122 0H28ZM608 0L429 8L505 227L620 218Q621 189 620 150T615 72T608 0ZM161 589L31 611L32 666H163L161 589ZM481 451L442 657L617 666Q618 643 616 606T609
527T596 451H481ZM107 0V666H317V0H107ZM520 278L280 288V373L520 393V278ZM604 547L275 570L200 666H617L604 547ZM207 0L282 98L606 127L607 0H207ZM433 684Q371 710 302 735T169 784L235 922L484 773L433 684Z" />
<glyph unicode="&#xc9;" glyph-name="Eacute" horiz-adv-x="670" d="M28 0L22 32Q43 49 68 63T121 91L122 0H28ZM608 0L429 8L505 227L620 218Q621 189 620 150T615 72T608 0ZM161 589L31 611L32 666H163L161 589ZM481 451L442 657L617 666Q618 643 616 606T609
527T596 451H481ZM107 0V666H317V0H107ZM520 278L280 288V373L520 393V278ZM604 547L275 570L200 666H617L604 547ZM207 0L282 98L606 127L607 0H207ZM232 684L181 773L430 922L496 784Q433 760 364 735T232 684Z" />
<glyph unicode="&#xca;" glyph-name="Ecircumflex" horiz-adv-x="670" d="M28 0L22 32Q43 49 68 63T121 91L122 0H28ZM608 0L429 8L505 227L620 218Q621 189 620 150T615 72T608 0ZM161 589L31 611L32 666H163L161 589ZM481 451L442 657L617 666Q618 643 616 606T609
527T596 451H481ZM107 0V666H317V0H107ZM520 278L280 288V373L520 393V278ZM604 547L275 570L200 666H617L604 547ZM207 0L282 98L606 127L607 0H207ZM179 707L111 769L269 944H400L557 769L493 707L332 823L179 707Z" />
<glyph unicode="&#xcb;" glyph-name="Edieresis" horiz-adv-x="670" d="M28 0L22 32Q43 49 68 63T121 91L122 0H28ZM608 0L429 8L505 227L620 218Q621 189 620 150T615 72T608 0ZM161 589L31 611L32 666H163L161 589ZM481 451L442 657L617 666Q618 643 616 606T609
527T596 451H481ZM107 0V666H317V0H107ZM520 278L280 288V373L520 393V278ZM604 547L275 570L200 666H617L604 547ZM207 0L282 98L606 127L607 0H207ZM471 724Q397 749 361 813Q368 856 393 886T454 936Q491 920 521 893T561 830Q537 759 471 724ZM214 724Q140
749 104 813Q111 856 136 886T197 936Q234 920 264 893T304 830Q280 759 214 724Z" />
<glyph unicode="&#xcc;" glyph-name="Igrave" horiz-adv-x="428" d="M107 0V666H317V0H107ZM28 0L22 32Q43 49 68 63T121 91L122 0H28ZM265 0L268 79L406 55L405 0H265ZM168 587L30 611L31 666H171L168 587ZM303 575L302 666H396L402 634Q381 618 357 604T303
575ZM314 684Q252 710 183 735T50 784L116 922L365 773L314 684Z" />
<glyph unicode="&#xcd;" glyph-name="Iacute" horiz-adv-x="428" d="M107 0V666H317V0H107ZM28 0L22 32Q43 49 68 63T121 91L122 0H28ZM265 0L268 79L406 55L405 0H265ZM168 587L30 611L31 666H171L168 587ZM303 575L302 666H396L402 634Q381 618 357 604T303
575ZM113 684L62 773L311 922L377 784Q314 760 245 735T113 684Z" />
<glyph unicode="&#xce;" glyph-name="Icircumflex" horiz-adv-x="428" d="M107 0V666H317V0H107ZM28 0L22 32Q43 49 68 63T121 91L122 0H28ZM265 0L268 79L406 55L405 0H265ZM168 587L30 611L31 666H171L168 587ZM303 575L302 666H396L402 634Q381 618 357 604T303
575ZM60 707L-8 769L150 944H281L438 769L374 707L213 823L60 707Z" />
<glyph unicode="&#xcf;" glyph-name="Idieresis" horiz-adv-x="428" d="M107 0V666H317V0H107ZM28 0L22 32Q43 49 68 63T121 91L122 0H28ZM265 0L268 79L406 55L405 0H265ZM168 587L30 611L31 666H171L168 587ZM303 575L302 666H396L402 634Q381 618 357 604T303
575ZM352 724Q278 749 242 813Q249 856 274 886T335 936Q372 920 402 893T442 830Q418 759 352 724ZM95 724Q21 749 -15 813Q-8 856 17 886T78 936Q115 920 145 893T185 830Q161 759 95 724Z" />
<glyph unicode="&#xd0;" glyph-name="Eth" horiz-adv-x="757" d="M18 262L12 299L55 342H437L443 305L400 262H18ZM300 0L288 121Q313 110 335 105T376 100Q416 100 445 119T494 172T522 245T532 327Q532 377 519 425T482 514T424 577L311 561L37 666Q125 671
209 672T382 674Q475 674 544 645T658 567T726 459T749 339Q749 273 727 212T661 104T549 28T390 0H300ZM28 0L22 32Q43 49 68 63T121 91L122 0H28ZM107 0V666H317V0H107ZM166 589L36 611L37 666H168L166 589Z" />
<glyph unicode="&#xd1;" glyph-name="Ntilde" horiz-adv-x="802" d="M516 -14L121 568L122 666H298L672 99L646 13L516 -14ZM28 0L22 32Q43 49 68 63T121 91L122 0H28ZM196 0L199 79L337 55L336 0H196ZM107 0V666H299L221 534L249 280V0H107ZM154 587L32 611L33
666H157L154 587ZM516 -14L597 42L561 370V666H703L695 0L516 -14ZM601 587L463 611L464 666H604L601 587ZM681 575L680 666H774L780 634Q759 618 735 604T681 575ZM493 700Q473 700 444 712T383 741T326 769T286 782Q272 782 253 766T207 723L148 767Q194 837
225 876T285 915Q308 915 361 891T494 826L582 898L632 855Q589 782 558 741T493 700Z" />
<glyph unicode="&#xd2;" glyph-name="Ograve" horiz-adv-x="698" d="M354 -20Q285 -20 223 2T113 68T36 177T8 328Q8 438 53 518T176 642T347 686Q416 686 478 662T587 592T662 478T690 323Q690 237 663 173T589 66T482 2T354 -20ZM372 85Q385 85 393 87T409 93Q437
123 454 184T471 321Q471 371 463 417T438 499T396 557T334 579Q321 579 308 576T283 568Q268 552 255 522T235 449T227 350Q227 289 237 240T266 156T311 103T372 85ZM451 684Q389 710 320 735T187 784L253 922L502 773L451 684Z" />
<glyph unicode="&#xd3;" glyph-name="Oacute" horiz-adv-x="698" d="M354 -20Q285 -20 223 2T113 68T36 177T8 328Q8 438 53 518T176 642T347 686Q416 686 478 662T587 592T662 478T690 323Q690 237 663 173T589 66T482 2T354 -20ZM372 85Q385 85 393 87T409 93Q437
123 454 184T471 321Q471 371 463 417T438 499T396 557T334 579Q321 579 308 576T283 568Q268 552 255 522T235 449T227 350Q227 289 237 240T266 156T311 103T372 85ZM250 684L199 773L448 922L514 784Q451 760 382 735T250 684Z" />
<glyph unicode="&#xd4;" glyph-name="Ocircumflex" horiz-adv-x="698" d="M354 -20Q285 -20 223 2T113 68T36 177T8 328Q8 438 53 518T176 642T347 686Q416 686 478 662T587 592T662 478T690 323Q690 237 663 173T589 66T482 2T354 -20ZM372 85Q385 85 393 87T409
93Q437 123 454 184T471 321Q471 371 463 417T438 499T396 557T334 579Q321 579 308 576T283 568Q268 552 255 522T235 449T227 350Q227 289 237 240T266 156T311 103T372 85ZM197 707L129 769L287 944H418L575 769L511 707L350 823L197 707Z" />
<glyph unicode="&#xd5;" glyph-name="Otilde" horiz-adv-x="698" d="M354 -20Q285 -20 223 2T113 68T36 177T8 328Q8 438 53 518T176 642T347 686Q416 686 478 662T587 592T662 478T690 323Q690 237 663 173T589 66T482 2T354 -20ZM372 85Q385 85 393 87T409 93Q437
123 454 184T471 321Q471 371 463 417T438 499T396 557T334 579Q321 579 308 576T283 568Q268 552 255 522T235 449T227 350Q227 289 237 240T266 156T311 103T372 85ZM462 700Q442 700 413 712T352 741T295 769T255 782Q241 782 222 766T176 723L117 767Q163 837
194 876T254 915Q277 915 330 891T463 826L551 898L601 855Q558 782 527 741T462 700Z" />
<glyph unicode="&#xd6;" glyph-name="Odieresis" horiz-adv-x="698" d="M354 -20Q285 -20 223 2T113 68T36 177T8 328Q8 438 53 518T176 642T347 686Q416 686 478 662T587 592T662 478T690 323Q690 237 663 173T589 66T482 2T354 -20ZM372 85Q385 85 393 87T409
93Q437 123 454 184T471 321Q471 371 463 417T438 499T396 557T334 579Q321 579 308 576T283 568Q268 552 255 522T235 449T227 350Q227 289 237 240T266 156T311 103T372 85ZM489 724Q415 749 379 813Q386 856 411 886T472 936Q509 920 539 893T579 830Q555 759
489 724ZM232 724Q158 749 122 813Q129 856 154 886T215 936Q252 920 282 893T322 830Q298 759 232 724Z" />
<glyph unicode="&#xd7;" glyph-name="multiply" horiz-adv-x="553" d="M416 17L275 160L136 18L57 96L197 238L55 382L137 463L279 319L417 461L497 383L356 241L498 99L416 17Z" />
<glyph unicode="&#xd8;" glyph-name="Oslash" horiz-adv-x="698" d="M175 -93L96 -50L544 751L623 706L175 -93ZM354 -20Q285 -20 223 2T113 68T36 177T8 328Q8 438 53 518T176 642T347 686Q416 686 478 662T587 592T662 478T690 323Q690 237 663 173T589 66T482
2T354 -20ZM372 85Q385 85 393 87T409 93Q437 123 454 184T471 321Q471 371 463 417T438 499T396 557T334 579Q321 579 308 576T283 568Q268 552 255 522T235 449T227 350Q227 289 237 240T266 156T311 103T372 85Z" />
<glyph unicode="&#xd9;" glyph-name="Ugrave" horiz-adv-x="773" d="M404 -20Q315 -20 242 14T126 121T83 307V666H293V257Q293 196 311 159T359 104T427 87Q452 87 471 94T506 114Q523 138 531 184T540 295V666H682V289Q682 200 660 140T599 45T510 -5T404 -20ZM144
587L6 611L7 666H147L144 587ZM279 575L278 666H372L378 634Q357 618 333 604T279 575ZM598 587L460 611L461 666H601L598 587ZM668 575L667 666H761L767 634Q746 618 722 604T668 575ZM486 684Q424 710 355 735T222 784L288 922L537 773L486 684Z" />
<glyph unicode="&#xda;" glyph-name="Uacute" horiz-adv-x="773" d="M404 -20Q315 -20 242 14T126 121T83 307V666H293V257Q293 196 311 159T359 104T427 87Q452 87 471 94T506 114Q523 138 531 184T540 295V666H682V289Q682 200 660 140T599 45T510 -5T404 -20ZM144
587L6 611L7 666H147L144 587ZM279 575L278 666H372L378 634Q357 618 333 604T279 575ZM598 587L460 611L461 666H601L598 587ZM668 575L667 666H761L767 634Q746 618 722 604T668 575ZM285 684L234 773L483 922L549 784Q486 760 417 735T285 684Z" />
<glyph unicode="&#xdb;" glyph-name="Ucircumflex" horiz-adv-x="773" d="M404 -20Q315 -20 242 14T126 121T83 307V666H293V257Q293 196 311 159T359 104T427 87Q452 87 471 94T506 114Q523 138 531 184T540 295V666H682V289Q682 200 660 140T599 45T510 -5T404
-20ZM144 587L6 611L7 666H147L144 587ZM279 575L278 666H372L378 634Q357 618 333 604T279 575ZM598 587L460 611L461 666H601L598 587ZM668 575L667 666H761L767 634Q746 618 722 604T668 575ZM232 707L164 769L322 944H453L610 769L546 707L385 823L232 707Z"
/>
<glyph unicode="&#xdc;" glyph-name="Udieresis" horiz-adv-x="773" d="M404 -20Q315 -20 242 14T126 121T83 307V666H293V257Q293 196 311 159T359 104T427 87Q452 87 471 94T506 114Q523 138 531 184T540 295V666H682V289Q682 200 660 140T599 45T510 -5T404
-20ZM144 587L6 611L7 666H147L144 587ZM279 575L278 666H372L378 634Q357 618 333 604T279 575ZM598 587L460 611L461 666H601L598 587ZM668 575L667 666H761L767 634Q746 618 722 604T668 575ZM524 724Q450 749 414 813Q421 856 446 886T507 936Q544 920 574
893T614 830Q590 759 524 724ZM267 724Q193 749 157 813Q164 856 189 886T250 936Q287 920 317 893T357 830Q333 759 267 724Z" />
<glyph unicode="&#xdd;" glyph-name="Yacute" horiz-adv-x="702" d="M254 234L25 666H230L344 452L372 363L398 364L419 322L254 234ZM172 0L166 32Q187 49 212 63T265 91L266 0H172ZM396 0L399 79L537 55L536 0H396ZM250 0V334H452V0H250ZM134 587L-4 611L-3
666H137L134 587ZM212 575L207 666H305L311 634Q290 618 266 604T212 575ZM437 248L344 293L532 666H661L437 248ZM568 587L430 611L431 666H571L568 587ZM607 575L602 666H700L706 634Q685 618 661 604T607 575ZM270 684L219 773L468 922L534 784Q471 760 402
735T270 684Z" />
<glyph unicode="&#xde;" glyph-name="Thorn" horiz-adv-x="654" d="M282 139L285 251Q302 241 319 236T353 231Q381 231 400 243T431 277T442 324Q442 350 430 375T392 422L301 411L182 526H392Q476 526 532 497T616 423T645 329Q645 282 619 239T539 168T404
140L282 139ZM28 0L22 33Q36 44 53 54T88 74T121 92L122 0H28ZM266 0L269 79L407 55L406 0H266ZM108 0V650H318V0H108ZM168 571L30 595L31 650H171L168 571ZM297 558L296 650H390L396 617Q383 606 366 596T331 576T297 558Z" />
<glyph unicode="&#xdf;" glyph-name="germandbls" horiz-adv-x="692" d="M476 -19Q442 -19 403 -13T328 4L370 167Q392 145 419 128T473 102Q489 121 489 139Q489 161 475 176T440 206T396 238T357 281T335 343Q354 369 369 399T390 460T392 521T365 573Q355 575
342 574T315 570T290 561L294 437V0H93V477Q93 527 111 563T160 624T224 661T291 681T346 687Q414 687 467 662T550 595T580 506Q580 473 563 443T509 381Q513 361 531 344T574 307T623 266T663 213T679 142Q679 91 652 55T580 0T476 -19ZM20 0L19 35Q51 55 85
68T151 88L143 0H20ZM7 342L6 398Q36 429 72 452T149 491L231 418L228 343L7 342Z" />
<glyph unicode="&#xe0;" glyph-name="agrave" horiz-adv-x="581" d="M435 -17Q412 -17 390 -7T349 22T316 70L297 73V318Q297 365 283 386T252 416Q242 415 232 413T215 406L186 294L72 293Q61 330 57 372T59 454Q93 466 131 475T207 491T278 501T333 505Q363
505 390 498T441 475T486 431Q494 419 496 395T498 329V134Q498 124 504 116T522 108Q534 108 545 108T575 110L578 65L435 -17ZM219 -12Q158 -22 114 -4T47 48T24 117Q24 149 44 183T109 239L331 244V178H299Q284 178 270 176T244 168T227 154T220 132Q220 122
224 110T235 90Q251 92 266 95T297 103T325 111L342 69L219 -12ZM277 529Q235 570 189 615T98 696L218 802L375 605L277 529Z" />
<glyph unicode="&#xe1;" glyph-name="aacute" horiz-adv-x="581" d="M435 -17Q412 -17 390 -7T349 22T316 70L297 73V318Q297 365 283 386T252 416Q242 415 232 413T215 406L186 294L72 293Q61 330 57 372T59 454Q93 466 131 475T207 491T278 501T333 505Q363
505 390 498T441 475T486 431Q494 419 496 395T498 329V134Q498 124 504 116T522 108Q534 108 545 108T575 110L578 65L435 -17ZM219 -12Q158 -22 114 -4T47 48T24 117Q24 149 44 183T109 239L331 244V178H299Q284 178 270 176T244 168T227 154T220 132Q220 122
224 110T235 90Q251 92 266 95T297 103T325 111L342 69L219 -12ZM265 529L167 605L324 802L444 696Q399 660 353 615T265 529Z" />
<glyph unicode="&#xe2;" glyph-name="acircumflex" horiz-adv-x="581" d="M435 -17Q412 -17 390 -7T349 22T316 70L297 73V318Q297 365 283 386T252 416Q242 415 232 413T215 406L186 294L72 293Q61 330 57 372T59 454Q93 466 131 475T207 491T278 501T333 505Q363
505 390 498T441 475T486 431Q494 419 496 395T498 329V134Q498 124 504 116T522 108Q534 108 545 108T575 110L578 65L435 -17ZM219 -12Q158 -22 114 -4T47 48T24 117Q24 149 44 183T109 239L331 244V178H299Q284 178 270 176T244 168T227 154T220 132Q220 122
224 110T235 90Q251 92 266 95T297 103T325 111L342 69L219 -12ZM148 521L77 575L213 745H340L473 583L413 526L272 636L148 521Z" />
<glyph unicode="&#xe3;" glyph-name="atilde" horiz-adv-x="581" d="M435 -17Q412 -17 390 -7T349 22T316 70L297 73V318Q297 365 283 386T252 416Q242 415 232 413T215 406L186 294L72 293Q61 330 57 372T59 454Q93 466 131 475T207 491T278 501T333 505Q363
505 390 498T441 475T486 431Q494 419 496 395T498 329V134Q498 124 504 116T522 108Q534 108 545 108T575 110L578 65L435 -17ZM219 -12Q158 -22 114 -4T47 48T24 117Q24 149 44 183T109 239L331 244V178H299Q284 178 270 176T244 168T227 154T220 132Q220 122
224 110T235 90Q251 92 266 95T297 103T325 111L342 69L219 -12ZM371 538Q350 538 326 550T278 580T233 609T197 622Q180 622 160 601T110 542L46 591Q82 653 107 687T154 735T203 749Q220 749 250 734T315 698T375 657L459 743L520 699Q481 620 443 579T371 538Z"
/>
<glyph unicode="&#xe4;" glyph-name="adieresis" horiz-adv-x="581" d="M435 -17Q412 -17 390 -7T349 22T316 70L297 73V318Q297 365 283 386T252 416Q242 415 232 413T215 406L186 294L72 293Q61 330 57 372T59 454Q93 466 131 475T207 491T278 501T333 505Q363
505 390 498T441 475T486 431Q494 419 496 395T498 329V134Q498 124 504 116T522 108Q534 108 545 108T575 110L578 65L435 -17ZM219 -12Q158 -22 114 -4T47 48T24 117Q24 149 44 183T109 239L331 244V178H299Q284 178 270 176T244 168T227 154T220 132Q220 122
224 110T235 90Q251 92 266 95T297 103T325 111L342 69L219 -12ZM410 542Q336 567 300 631Q307 674 332 704T393 754Q430 738 460 711T500 648Q476 577 410 542ZM153 542Q79 567 43 631Q50 674 75 704T136 754Q173 738 203 711T243 648Q219 577 153 542Z" />
<glyph unicode="&#xe5;" glyph-name="aring" horiz-adv-x="581" d="M435 -17Q412 -17 390 -7T349 22T316 70L297 73V318Q297 365 283 386T252 416Q242 415 232 413T215 406L186 294L72 293Q61 330 57 372T59 454Q93 466 131 475T207 491T278 501T333 505Q363 505
390 498T441 475T486 431Q494 419 496 395T498 329V134Q498 124 504 116T522 108Q534 108 545 108T575 110L578 65L435 -17ZM219 -12Q158 -22 114 -4T47 48T24 117Q24 149 44 183T109 239L331 244V178H299Q284 178 270 176T244 168T227 154T220 132Q220 122 224
110T235 90Q251 92 266 95T297 103T325 111L342 69L219 -12ZM276 527Q221 527 183 561T144 654Q144 709 180 746T271 783Q325 783 362 746T399 651Q399 596 365 562T276 527ZM273 578Q298 578 314 594T330 635Q330 661 313 677T271 694Q246 694 230 678T213 636Q213
609 231 594T273 578Z" />
<glyph unicode="&#xe6;" glyph-name="ae" horiz-adv-x="809" d="M624 -11Q563 -23 505 -11T401 33T328 116T301 236L369 239L410 453Q444 478 484 491T565 504Q602 504 642 493T718 455T774 386T796 278L616 271Q621 301 614 333T589 387T545 413Q514 392 499
347T484 258Q484 207 502 174T553 124T626 108Q659 108 688 118T754 147L782 85L624 -11ZM219 -12Q158 -22 114 -4T47 48T24 117Q24 149 44 183T109 239L331 244V178H299Q284 178 270 176T244 168T227 154T220 132Q220 122 224 110T235 90Q247 92 263 95T296 104T328
113T353 121L369 73L219 -12ZM426 151L299 201L298 312Q297 359 283 380T253 409Q243 408 233 406T216 399L187 287L65 293Q57 331 56 370T60 447Q95 459 132 469T207 486T280 496T351 500Q373 499 393 487T430 456T463 415L426 151ZM729 219L419 220L403 299L680
318L788 278L729 219Z" />
<glyph unicode="&#xe7;" glyph-name="ccedilla" horiz-adv-x="479" d="M322 -12Q264 -24 208 -12T107 33T35 118T8 240Q8 320 43 379T137 471T269 504Q318 504 363 488T441 438T484 353L319 274Q303 318 286 350T243 403Q216 375 208 336T199 269Q199 223 214
187T259 129T333 108Q360 108 387 116T444 140L470 81L322 -12ZM173 -273L152 -239Q196 -224 219 -202T244 -160T230 -127T175 -118L148 -71L211 6H284L250 -56Q289 -56 320 -68T368 -99T385 -142Q384 -174 360 -205T288 -255T173 -273Z" />
<glyph unicode="&#xe8;" glyph-name="egrave" horiz-adv-x="516" d="M331 -11Q270 -23 212 -11T108 33T35 116T8 236Q8 298 30 347T89 432T174 485T272 504Q309 504 349 493T425 455T481 386T503 278L323 271Q328 301 321 333T296 387T252 413Q232 399 219 373T199
316T192 257Q192 208 210 175T260 125T334 108Q366 108 395 118T461 147L489 85L331 -11ZM444 219L134 220L118 299L395 318L503 278L444 219ZM273 529Q231 570 185 615T94 696L214 802L371 605L273 529Z" />
<glyph unicode="&#xe9;" glyph-name="eacute" horiz-adv-x="516" d="M331 -11Q270 -23 212 -11T108 33T35 116T8 236Q8 298 30 347T89 432T174 485T272 504Q309 504 349 493T425 455T481 386T503 278L323 271Q328 301 321 333T296 387T252 413Q232 399 219 373T199
316T192 257Q192 208 210 175T260 125T334 108Q366 108 395 118T461 147L489 85L331 -11ZM444 219L134 220L118 299L395 318L503 278L444 219ZM261 529L163 605L320 802L440 696Q395 660 349 615T261 529Z" />
<glyph unicode="&#xea;" glyph-name="ecircumflex" horiz-adv-x="516" d="M331 -11Q270 -23 212 -11T108 33T35 116T8 236Q8 298 30 347T89 432T174 485T272 504Q309 504 349 493T425 455T481 386T503 278L323 271Q328 301 321 333T296 387T252 413Q232 399 219
373T199 316T192 257Q192 208 210 175T260 125T334 108Q366 108 395 118T461 147L489 85L331 -11ZM444 219L134 220L118 299L395 318L503 278L444 219ZM144 521L73 575L209 745H336L469 583L409 526L268 636L144 521Z" />
<glyph unicode="&#xeb;" glyph-name="edieresis" horiz-adv-x="516" d="M331 -11Q270 -23 212 -11T108 33T35 116T8 236Q8 298 30 347T89 432T174 485T272 504Q309 504 349 493T425 455T481 386T503 278L323 271Q328 301 321 333T296 387T252 413Q232 399 219
373T199 316T192 257Q192 208 210 175T260 125T334 108Q366 108 395 118T461 147L489 85L331 -11ZM444 219L134 220L118 299L395 318L503 278L444 219ZM406 542Q332 567 296 631Q303 674 328 704T389 754Q426 738 456 711T496 648Q472 577 406 542ZM149 542Q75
567 39 631Q46 674 71 704T132 754Q169 738 199 711T239 648Q215 577 149 542Z" />
<glyph unicode="&#xec;" glyph-name="igrave" horiz-adv-x="350" d="M83 0V437L225 495L284 442V0H83ZM9 0L8 35Q40 55 74 68T140 88L132 0H9ZM175 0L208 115Q241 105 274 89T339 49L338 0H175ZM8 407L6 456Q54 473 109 483T225 495L220 409L133 375L8 407ZM177
529Q135 570 89 615T-2 696L118 802L275 605L177 529Z" />
<glyph unicode="&#xed;" glyph-name="iacute" horiz-adv-x="350" d="M83 0V437L225 495L284 442V0H83ZM9 0L8 35Q40 55 74 68T140 88L132 0H9ZM175 0L208 115Q241 105 274 89T339 49L338 0H175ZM8 407L6 456Q54 473 109 483T225 495L220 409L133 375L8 407ZM165
529L67 605L224 802L344 696Q299 660 253 615T165 529Z" />
<glyph unicode="&#xee;" glyph-name="icircumflex" horiz-adv-x="350" d="M83 0V437L225 495L284 442V0H83ZM9 0L8 35Q40 55 74 68T140 88L132 0H9ZM175 0L208 115Q241 105 274 89T339 49L338 0H175ZM8 407L6 456Q54 473 109 483T225 495L220 409L133 375L8 407ZM48
521L-23 575L113 745H240L373 583L313 526L172 636L48 521Z" />
<glyph unicode="&#xef;" glyph-name="idieresis" horiz-adv-x="350" d="M83 0V437L225 495L284 442V0H83ZM9 0L8 35Q40 55 74 68T140 88L132 0H9ZM175 0L208 115Q241 105 274 89T339 49L338 0H175ZM8 407L6 456Q54 473 109 483T225 495L220 409L133 375L8 407ZM310
542Q236 567 200 631Q207 674 232 704T293 754Q330 738 360 711T400 648Q376 577 310 542ZM53 542Q-21 567 -57 631Q-50 674 -25 704T36 754Q73 738 103 711T143 648Q119 577 53 542Z" />
<glyph unicode="&#xf0;" glyph-name="eth" horiz-adv-x="549" d="M285 -28Q235 -28 186 -11T96 39T32 123T8 240Q8 317 40 369T122 448T228 475Q267 475 303 462T368 422L322 428Q309 466 292 509T249 603T186 711L324 779Q369 725 409 660T479 525T526 386T544
255Q544 166 509 103T415 6T285 -28ZM312 74Q330 96 341 135T354 221T350 314T324 396L390 294Q353 330 328 349T263 376Q249 362 238 338T221 285T215 225Q215 188 225 154T257 97T312 74ZM222 513L146 564L140 609L458 741L515 627L222 513Z" />
<glyph unicode="&#xf1;" glyph-name="ntilde" horiz-adv-x="666" d="M83 0V445L225 503L284 442V0H83ZM382 0V281Q382 322 365 346T312 369Q289 368 264 357T213 329T164 294L163 315Q203 360 245 396T331 457T417 498Q437 499 465 494T522 473T571 425Q576 417
578 403T582 364T583 294V0H382ZM8 415L6 464Q54 481 109 491T225 503L220 417L133 383L8 415ZM9 0L8 35Q40 55 74 68T140 88L132 0H9ZM175 0L208 115Q241 105 274 89T339 49L338 0H175ZM324 0L323 35Q355 55 389 68T455 88L447 0H324ZM474 0L507 115Q540 105 582
89T655 49L653 0H474ZM433 538Q412 538 388 550T340 580T295 609T259 622Q242 622 222 601T172 542L108 591Q144 653 169 687T216 735T265 749Q282 749 312 734T377 698T437 657L521 743L582 699Q543 620 505 579T433 538Z" />
<glyph unicode="&#xf2;" glyph-name="ograve" horiz-adv-x="539" d="M272 -20Q205 -20 145 11T46 101T8 245Q8 329 45 386T141 474T267 504Q333 504 392 474T489 386T526 241Q526 158 491 100T398 11T272 -20ZM275 78Q285 78 296 82Q306 91 312 112T321 163T324
229Q324 276 318 313T298 373T261 396Q254 396 247 395T234 389Q223 372 217 332T210 239Q210 194 216 158T237 100T275 78ZM273 529Q231 570 185 615T94 696L214 802L371 605L273 529Z" />
<glyph unicode="&#xf3;" glyph-name="oacute" horiz-adv-x="539" d="M272 -20Q205 -20 145 11T46 101T8 245Q8 329 45 386T141 474T267 504Q333 504 392 474T489 386T526 241Q526 158 491 100T398 11T272 -20ZM275 78Q285 78 296 82Q306 91 312 112T321 163T324
229Q324 276 318 313T298 373T261 396Q254 396 247 395T234 389Q223 372 217 332T210 239Q210 194 216 158T237 100T275 78ZM261 529L163 605L320 802L440 696Q395 660 349 615T261 529Z" />
<glyph unicode="&#xf4;" glyph-name="ocircumflex" horiz-adv-x="539" d="M272 -20Q205 -20 145 11T46 101T8 245Q8 329 45 386T141 474T267 504Q333 504 392 474T489 386T526 241Q526 158 491 100T398 11T272 -20ZM275 78Q285 78 296 82Q306 91 312 112T321 163T324
229Q324 276 318 313T298 373T261 396Q254 396 247 395T234 389Q223 372 217 332T210 239Q210 194 216 158T237 100T275 78ZM144 521L73 575L209 745H336L469 583L409 526L268 636L144 521Z" />
<glyph unicode="&#xf5;" glyph-name="otilde" horiz-adv-x="539" d="M272 -20Q205 -20 145 11T46 101T8 245Q8 329 45 386T141 474T267 504Q333 504 392 474T489 386T526 241Q526 158 491 100T398 11T272 -20ZM275 78Q285 78 296 82Q306 91 312 112T321 163T324
229Q324 276 318 313T298 373T261 396Q254 396 247 395T234 389Q223 372 217 332T210 239Q210 194 216 158T237 100T275 78ZM367 538Q346 538 322 550T274 580T229 609T193 622Q176 622 156 601T106 542L42 591Q78 653 103 687T150 735T199 749Q216 749 246 734T311
698T371 657L455 743L516 699Q477 620 439 579T367 538Z" />
<glyph unicode="&#xf6;" glyph-name="odieresis" horiz-adv-x="539" d="M272 -20Q205 -20 145 11T46 101T8 245Q8 329 45 386T141 474T267 504Q333 504 392 474T489 386T526 241Q526 158 491 100T398 11T272 -20ZM275 78Q285 78 296 82Q306 91 312 112T321 163T324
229Q324 276 318 313T298 373T261 396Q254 396 247 395T234 389Q223 372 217 332T210 239Q210 194 216 158T237 100T275 78ZM406 542Q332 567 296 631Q303 674 328 704T389 754Q426 738 456 711T496 648Q472 577 406 542ZM149 542Q75 567 39 631Q46 674 71 704T132
754Q169 738 199 711T239 648Q215 577 149 542Z" />
<glyph unicode="&#xf7;" glyph-name="divide" horiz-adv-x="594" d="M52 210V320H542V210H52ZM308 -20Q282 -12 263 1T229 30T205 63Q209 92 222 113T254 151T292 178Q318 167 338 151T371 116T391 78Q385 60 375 42T348 8T308 -20ZM308 349Q282 357 263 370T229
399T205 432Q209 460 222 482T254 520T292 547Q318 536 338 520T371 485T391 447Q385 429 375 411T348 377T308 349Z" />
<glyph unicode="&#xf8;" glyph-name="oslash" horiz-adv-x="539" d="M272 -20Q205 -20 145 11T46 101T8 245Q8 329 45 386T141 474T267 504Q333 504 392 474T489 386T526 241Q526 158 491 100T398 11T272 -20ZM275 78Q285 78 296 82Q306 91 312 112T321 163T324
229Q324 276 318 313T298 373T261 396Q254 396 247 395T234 389Q223 372 217 332T210 239Q210 194 216 158T237 100T275 78ZM128 -97L23 -28L417 566L524 498L128 -97Z" />
<glyph unicode="&#xf9;" glyph-name="ugrave" horiz-adv-x="656" d="M243 -17Q224 -19 196 -13T139 10T90 60Q85 69 82 82T78 121T77 191V449L219 503L278 450V194Q278 154 295 134T349 116Q385 118 422 140T497 188L498 167Q460 123 418 87T331 24T243 -17ZM2
415L0 464Q48 481 103 491T219 503L214 417L127 383L2 415ZM510 -17Q487 -16 465 -5T425 26T392 74L373 77V449L515 503L574 450V134Q574 124 580 116T598 108Q610 108 621 108T651 110L654 65L510 -17ZM322 419L320 468Q362 484 411 493T515 503L510 417L423 383L322
419ZM313 529Q271 570 225 615T134 696L254 802L411 605L313 529Z" />
<glyph unicode="&#xfa;" glyph-name="uacute" horiz-adv-x="656" d="M243 -17Q224 -19 196 -13T139 10T90 60Q85 69 82 82T78 121T77 191V449L219 503L278 450V194Q278 154 295 134T349 116Q385 118 422 140T497 188L498 167Q460 123 418 87T331 24T243 -17ZM2
415L0 464Q48 481 103 491T219 503L214 417L127 383L2 415ZM510 -17Q487 -16 465 -5T425 26T392 74L373 77V449L515 503L574 450V134Q574 124 580 116T598 108Q610 108 621 108T651 110L654 65L510 -17ZM322 419L320 468Q362 484 411 493T515 503L510 417L423 383L322
419ZM301 529L203 605L360 802L480 696Q435 660 389 615T301 529Z" />
<glyph unicode="&#xfb;" glyph-name="ucircumflex" horiz-adv-x="656" d="M243 -17Q224 -19 196 -13T139 10T90 60Q85 69 82 82T78 121T77 191V449L219 503L278 450V194Q278 154 295 134T349 116Q385 118 422 140T497 188L498 167Q460 123 418 87T331 24T243 -17ZM2
415L0 464Q48 481 103 491T219 503L214 417L127 383L2 415ZM510 -17Q487 -16 465 -5T425 26T392 74L373 77V449L515 503L574 450V134Q574 124 580 116T598 108Q610 108 621 108T651 110L654 65L510 -17ZM322 419L320 468Q362 484 411 493T515 503L510 417L423 383L322
419ZM184 521L113 575L249 745H376L509 583L449 526L308 636L184 521Z" />
<glyph unicode="&#xfc;" glyph-name="udieresis" horiz-adv-x="656" d="M243 -17Q224 -19 196 -13T139 10T90 60Q85 69 82 82T78 121T77 191V449L219 503L278 450V194Q278 154 295 134T349 116Q385 118 422 140T497 188L498 167Q460 123 418 87T331 24T243 -17ZM2
415L0 464Q48 481 103 491T219 503L214 417L127 383L2 415ZM510 -17Q487 -16 465 -5T425 26T392 74L373 77V449L515 503L574 450V134Q574 124 580 116T598 108Q610 108 621 108T651 110L654 65L510 -17ZM322 419L320 468Q362 484 411 493T515 503L510 417L423 383L322
419ZM446 542Q372 567 336 631Q343 674 368 704T429 754Q466 738 496 711T536 648Q512 577 446 542ZM189 542Q115 567 79 631Q86 674 111 704T172 754Q209 738 239 711T279 648Q255 577 189 542Z" />
<glyph unicode="&#xfd;" glyph-name="yacute" horiz-adv-x="584" d="M149 -234L46 -56Q107 -39 166 -20T282 22Q252 29 225 36T169 50L23 449L223 482L284 254L289 186H305Q315 234 324 283T342 383T358 482H566Q549 422 532 356T495 223T450 92Q423 23 385 -34T290
-140T149 -234ZM169 296L-31 426V482H222L169 296ZM223 392L103 482H289L290 429Q277 418 259 409T223 392ZM491 296L291 426V482H544L491 296ZM521 392L401 482H587L588 429Q575 418 557 409T521 392ZM301 529L203 605L360 802L480 696Q435 660 389 615T301 529Z"
/>
<glyph unicode="&#xfe;" glyph-name="thorn" horiz-adv-x="605" d="M67 679L210 737L269 683V-201H67V679ZM290 -18Q241 -18 182 -8T68 19L176 145Q198 120 222 106T274 86T332 84Q358 110 371 150T385 232Q385 267 375 297T344 345T294 363Q274 363 252 354T203
328L194 360L372 494Q425 502 465 487T534 438T577 361T592 266Q592 213 575 163T520 71T426 6T290 -18ZM-22 646L-24 695Q28 713 87 723T210 737L204 651L118 598L-22 646ZM1 -201L0 -165Q32 -152 66 -139T132 -113L124 -201H1ZM201 -201L234 -86Q267 -102 300
-118T365 -152L364 -201H201Z" />
<glyph unicode="&#xff;" glyph-name="ydieresis" horiz-adv-x="584" d="M149 -234L46 -56Q107 -39 166 -20T282 22Q252 29 225 36T169 50L23 449L223 482L284 254L289 186H305Q315 234 324 283T342 383T358 482H566Q549 422 532 356T495 223T450 92Q423 23 385
-34T290 -140T149 -234ZM169 296L-31 426V482H222L169 296ZM223 392L103 482H289L290 429Q277 418 259 409T223 392ZM491 296L291 426V482H544L491 296ZM521 392L401 482H587L588 429Q575 418 557 409T521 392ZM446 542Q372 567 336 631Q343 674 368 704T429 754Q466
738 496 711T536 648Q512 577 446 542ZM189 542Q115 567 79 631Q86 674 111 704T172 754Q209 738 239 711T279 648Q255 577 189 542Z" />
<glyph unicode="&#x2013;" glyph-name="endash" horiz-adv-x="588" d="M40 217L34 302Q63 316 93 322T147 328H527L532 270L485 217H40Z" />
<glyph unicode="&#x2014;" glyph-name="emdash" horiz-adv-x="1049" d="M40 217L34 302Q63 316 93 322T147 328H988L993 270L946 217H40Z" />
<glyph unicode="&#x2018;" glyph-name="quoteleft" horiz-adv-x="270" d="M119 426Q80 441 59 463T30 510T22 553Q22 592 43 630T103 700T189 754L230 704Q204 680 187 653T162 589L221 533Q216 513 202 491T166 451T119 426Z" />
<glyph unicode="&#x2019;" glyph-name="quoteright" horiz-adv-x="270" d="M81 426L40 476Q66 500 83 527T108 592L49 648Q54 668 68 690T104 730T151 754Q191 740 211 717T240 670T248 627Q248 588 227 550T168 480T81 426Z" />
<glyph unicode="&#x201a;" glyph-name="quotesinglbase" horiz-adv-x="270" d="M81 -174L40 -124Q66 -100 83 -73T108 -8L49 48Q54 68 68 90T104 130T151 154Q191 140 211 117T240 70T248 27Q248 -12 227 -50T168 -120T81 -174Z" />
<glyph unicode="&#x201c;" glyph-name="quotedblleft" horiz-adv-x="507" d="M119 426Q80 441 59 463T30 510T22 553Q22 592 43 630T103 700T189 754L230 704Q204 680 187 653T162 589L221 533Q216 513 202 491T166 451T119 426ZM356 426Q317 441 296 463T267
510T259 553Q259 592 280 630T340 700T426 754L467 704Q441 680 424 653T399 589L458 533Q453 513 439 491T403 451T356 426Z" />
<glyph unicode="&#x201d;" glyph-name="quotedblright" horiz-adv-x="507" d="M81 426L40 476Q66 500 83 527T108 592L49 648Q54 668 68 690T104 730T151 754Q191 740 211 717T240 670T248 627Q248 588 227 550T168 480T81 426ZM318 426L277 476Q303 500 320 527T345
592L286 648Q291 668 305 690T341 730T388 754Q428 740 448 717T477 670T485 627Q485 588 464 550T405 480T318 426Z" />
<glyph unicode="&#x201e;" glyph-name="quotedblbase" horiz-adv-x="507" d="M81 -174L40 -124Q66 -100 83 -73T108 -8L49 48Q54 68 68 90T104 130T151 154Q191 140 211 117T240 70T248 27Q248 -12 227 -50T168 -120T81 -174ZM318 -174L277 -124Q303 -100 320
-73T345 -8L286 48Q291 68 305 90T341 130T388 154Q428 140 448 117T477 70T485 27Q485 -12 464 -50T405 -120T318 -174Z" />
<glyph unicode="&#x2022;" glyph-name="bullet" horiz-adv-x="419" d="M226 81Q165 102 121 137T49 224Q60 292 100 340T199 422Q258 397 304 353T370 251Q352 196 317 153T226 81Z" />
<glyph unicode="&#x2039;" glyph-name="guilsinglleft" horiz-adv-x="379" d="M228 29L52 207V299L228 480L320 415L231 253L327 99L228 29Z" />
<glyph unicode="&#x203a;" glyph-name="guilsinglright" horiz-adv-x="379" d="M151 29L52 99L148 253L59 415L151 480L327 299V207L151 29Z" />
</font>
</defs>
</svg>
